<?xml version="1.0" encoding="UTF-8" standalone="no"?>
<!DOCTYPE svg PUBLIC "-//W3C//DTD SVG 1.1//EN"
 "http://www.w3.org/Graphics/SVG/1.1/DTD/svg11.dtd">
<!-- Generated by graphviz version 12.2.1 (20241206.2353)
 -->
<!-- Pages: 1 -->
<svg width="409pt" height="524pt"
 viewBox="0.00 0.00 409.00 524.00" xmlns="http://www.w3.org/2000/svg" xmlns:xlink="http://www.w3.org/1999/xlink">
<g id="graph0" class="graph" transform="scale(1 1) rotate(0) translate(4 520)">
<polygon fill="white" stroke="none" points="-4,4 -4,-520 405,-520 405,4 -4,4"/>
<g id="clust1" class="cluster">
<title>cluster_traditional</title>
<polygon fill="lightgray" stroke="lightgray" points="8,-81 8,-508 175,-508 175,-81 8,-81"/>
<text text-anchor="middle" x="91.5" y="-490.7" font-family="Times,serif" font-size="14.00">Traditional Business Model</text>
</g>
<g id="clust2" class="cluster">
<title>cluster_platform</title>
<polygon fill="lightyellow" stroke="lightyellow" points="183,-8 183,-392 393,-392 393,-8 183,-8"/>
<text text-anchor="middle" x="288" y="-374.7" font-family="Times,serif" font-size="14.00">Platform Business Model</text>
</g>
<!-- traditional_value_creation -->
<g id="node1" class="node">
<title>traditional_value_creation</title>
<polygon fill="lightblue" stroke="lightblue" points="167,-475.5 31,-475.5 31,-434.5 167,-434.5 167,-475.5"/>
<text text-anchor="middle" x="99" y="-458.2" font-family="Times,serif" font-size="14.00">Value Creation</text>
<text text-anchor="middle" x="99" y="-441.7" font-family="Times,serif" font-size="14.00">(Vertically Integrated)</text>
</g>
<!-- traditional_linear -->
<g id="node2" class="node">
<title>traditional_linear</title>
<polygon fill="lightblue" stroke="lightblue" points="162.5,-359.5 41.5,-359.5 41.5,-323.5 162.5,-323.5 162.5,-359.5"/>
<text text-anchor="middle" x="102" y="-336.45" font-family="Times,serif" font-size="14.00">Linear Value Chain</text>
</g>
<!-- traditional_value_creation&#45;&gt;traditional_linear -->
<g id="edge1" class="edge">
<title>traditional_value_creation&#45;&gt;traditional_linear</title>
<path fill="none" stroke="darkgray" d="M99.54,-434.07C100.01,-416.53 100.7,-390.8 101.23,-371.08"/>
<polygon fill="darkgray" stroke="darkgray" points="104.73,-371.31 101.5,-361.22 97.73,-371.12 104.73,-371.31"/>
</g>
<!-- platform_ecosystem -->
<g id="node6" class="node">
<title>platform_ecosystem</title>
<polygon fill="lightblue" stroke="lightblue" points="385.25,-359.5 190.75,-359.5 190.75,-323.5 385.25,-323.5 385.25,-359.5"/>
<text text-anchor="middle" x="288" y="-336.45" font-family="Times,serif" font-size="14.00">Ecosystem&#45;based Value Creation</text>
</g>
<!-- traditional_value_creation&#45;&gt;platform_ecosystem -->
<g id="edge9" class="edge">
<title>traditional_value_creation&#45;&gt;platform_ecosystem</title>
<path fill="none" stroke="red" stroke-dasharray="5,2" d="M132.79,-434.07C165.36,-414.85 214.61,-385.8 248.86,-365.59"/>
<polygon fill="red" stroke="red" points="250.4,-368.75 257.23,-360.65 246.84,-362.72 250.4,-368.75"/>
<text text-anchor="middle" x="230.21" y="-403.2" font-family="Times,serif" font-size="14.00">Transformation</text>
</g>
<!-- traditional_control -->
<g id="node3" class="node">
<title>traditional_control</title>
<polygon fill="lightblue" stroke="lightblue" points="163.62,-271 40.38,-271 40.38,-235 163.62,-235 163.62,-271"/>
<text text-anchor="middle" x="102" y="-247.95" font-family="Times,serif" font-size="14.00">Centralized Control</text>
</g>
<!-- traditional_linear&#45;&gt;traditional_control -->
<g id="edge2" class="edge">
<title>traditional_linear&#45;&gt;traditional_control</title>
<path fill="none" stroke="darkgray" d="M102,-323.41C102,-311.76 102,-296.05 102,-282.52"/>
<polygon fill="darkgray" stroke="darkgray" points="105.5,-282.86 102,-272.86 98.5,-282.86 105.5,-282.86"/>
</g>
<!-- platform_modularity -->
<g id="node7" class="node">
<title>platform_modularity</title>
<polygon fill="lightblue" stroke="lightblue" points="342.88,-271 209.12,-271 209.12,-235 342.88,-235 342.88,-271"/>
<text text-anchor="middle" x="276" y="-247.95" font-family="Times,serif" font-size="14.00">Modular Architecture</text>
</g>
<!-- traditional_linear&#45;&gt;platform_modularity -->
<g id="edge10" class="edge">
<title>traditional_linear&#45;&gt;platform_modularity</title>
<path fill="none" stroke="red" stroke-dasharray="5,2" d="M136.79,-323.2C163.85,-309.75 201.6,-290.99 230.96,-276.39"/>
<polygon fill="red" stroke="red" points="232.22,-279.67 239.61,-272.09 229.1,-273.41 232.22,-279.67"/>
<text text-anchor="middle" x="217.71" y="-292.2" font-family="Times,serif" font-size="14.00">Shift</text>
</g>
<!-- traditional_resources -->
<g id="node4" class="node">
<title>traditional_resources</title>
<polygon fill="lightblue" stroke="lightblue" points="159.12,-198 44.87,-198 44.87,-162 159.12,-162 159.12,-198"/>
<text text-anchor="middle" x="102" y="-174.95" font-family="Times,serif" font-size="14.00">Owned Resources</text>
</g>
<!-- traditional_control&#45;&gt;traditional_resources -->
<g id="edge3" class="edge">
<title>traditional_control&#45;&gt;traditional_resources</title>
<path fill="none" stroke="darkgray" d="M102,-234.81C102,-227.23 102,-218.1 102,-209.54"/>
<polygon fill="darkgray" stroke="darkgray" points="105.5,-209.54 102,-199.54 98.5,-209.54 105.5,-209.54"/>
</g>
<!-- traditional_interactions -->
<g id="node5" class="node">
<title>traditional_interactions</title>
<polygon fill="lightblue" stroke="lightblue" points="165.5,-125 38.5,-125 38.5,-89 165.5,-89 165.5,-125"/>
<text text-anchor="middle" x="102" y="-101.95" font-family="Times,serif" font-size="14.00">Limited Interactions</text>
</g>
<!-- traditional_resources&#45;&gt;traditional_interactions -->
<g id="edge4" class="edge">
<title>traditional_resources&#45;&gt;traditional_interactions</title>
<path fill="none" stroke="darkgray" d="M102,-161.81C102,-154.23 102,-145.1 102,-136.54"/>
<polygon fill="darkgray" stroke="darkgray" points="105.5,-136.54 102,-126.54 98.5,-136.54 105.5,-136.54"/>
</g>
<!-- platform_ecosystem&#45;&gt;platform_modularity -->
<g id="edge5" class="edge">
<title>platform_ecosystem&#45;&gt;platform_modularity</title>
<path fill="none" stroke="darkgray" d="M285.63,-323.41C284.01,-311.76 281.83,-296.05 279.96,-282.52"/>
<polygon fill="darkgray" stroke="darkgray" points="283.46,-282.27 278.61,-272.85 276.52,-283.24 283.46,-282.27"/>
</g>
<!-- platform_network -->
<g id="node8" class="node">
<title>platform_network</title>
<polygon fill="lightblue" stroke="lightblue" points="328.62,-198 223.38,-198 223.38,-162 328.62,-162 328.62,-198"/>
<text text-anchor="middle" x="276" y="-174.95" font-family="Times,serif" font-size="14.00">Network Effects</text>
</g>
<!-- platform_modularity&#45;&gt;platform_network -->
<g id="edge6" class="edge">
<title>platform_modularity&#45;&gt;platform_network</title>
<path fill="none" stroke="darkgray" d="M276,-234.81C276,-227.23 276,-218.1 276,-209.54"/>
<polygon fill="darkgray" stroke="darkgray" points="279.5,-209.54 276,-199.54 272.5,-209.54 279.5,-209.54"/>
</g>
<!-- platform_resources -->
<g id="node9" class="node">
<title>platform_resources</title>
<polygon fill="lightblue" stroke="lightblue" points="348.12,-125 203.88,-125 203.88,-89 348.12,-89 348.12,-125"/>
<text text-anchor="middle" x="276" y="-101.95" font-family="Times,serif" font-size="14.00">Orchestrated Resources</text>
</g>
<!-- platform_network&#45;&gt;platform_resources -->
<g id="edge7" class="edge">
<title>platform_network&#45;&gt;platform_resources</title>
<path fill="none" stroke="darkgray" d="M276,-161.81C276,-154.23 276,-145.1 276,-136.54"/>
<polygon fill="darkgray" stroke="darkgray" points="279.5,-136.54 276,-126.54 272.5,-136.54 279.5,-136.54"/>
</g>
<!-- platform_interactions -->
<g id="node10" class="node">
<title>platform_interactions</title>
<polygon fill="lightblue" stroke="lightblue" points="349.62,-52 202.38,-52 202.38,-16 349.62,-16 349.62,-52"/>
<text text-anchor="middle" x="276" y="-28.95" font-family="Times,serif" font-size="14.00">Multi&#45;sided Interactions</text>
</g>
<!-- platform_resources&#45;&gt;platform_interactions -->
<g id="edge8" class="edge">
<title>platform_resources&#45;&gt;platform_interactions</title>
<path fill="none" stroke="darkgray" d="M276,-88.81C276,-81.23 276,-72.1 276,-63.54"/>
<polygon fill="darkgray" stroke="darkgray" points="279.5,-63.54 276,-53.54 272.5,-63.54 279.5,-63.54"/>
</g>
</g>
</svg>
