<?xml version="1.0" encoding="utf-8" standalone="no"?>
<!DOCTYPE svg PUBLIC "-//W3C//DTD SVG 1.1//EN"
  "http://www.w3.org/Graphics/SVG/1.1/DTD/svg11.dtd">
<svg xmlns:xlink="http://www.w3.org/1999/xlink" width="1001.098437pt" height="496.774375pt" viewBox="0 0 1001.098437 496.774375" xmlns="http://www.w3.org/2000/svg" version="1.1">
 <metadata>
  <rdf:RDF xmlns:dc="http://purl.org/dc/elements/1.1/" xmlns:cc="http://creativecommons.org/ns#" xmlns:rdf="http://www.w3.org/1999/02/22-rdf-syntax-ns#">
   <cc:Work>
    <dc:type rdf:resource="http://purl.org/dc/dcmitype/StillImage"/>
    <dc:date>2025-09-20T08:34:52.023118</dc:date>
    <dc:format>image/svg+xml</dc:format>
    <dc:creator>
     <cc:Agent>
      <dc:title>Matplotlib v3.10.0, https://matplotlib.org/</dc:title>
     </cc:Agent>
    </dc:creator>
   </cc:Work>
  </rdf:RDF>
 </metadata>
 <defs>
  <style type="text/css">*{stroke-linejoin: round; stroke-linecap: butt}</style>
 </defs>
 <g id="figure_1">
  <g id="patch_1">
   <path d="M 0 496.774375 
L 1001.098437 496.774375 
L 1001.098437 0 
L 0 0 
z
" style="fill: #ffffff"/>
  </g>
  <g id="axes_1">
   <g id="patch_2">
    <path d="M 48.982813 459.218125 
L 954.132812 459.218125 
L 954.132812 22.318125 
L 48.982813 22.318125 
z
" style="fill: #ffffff"/>
   </g>
   <g id="FillBetweenPolyCollection_1">
    <defs>
     <path id="m383cf204de" d="M 96.132298 -168.811212 
L 96.132298 -158.55028 
L 126.163818 -173.929276 
L 156.195337 -155.478767 
L 186.226857 -157.11507 
L 216.258377 -152.238472 
L 246.289896 -145.654907 
L 276.321416 -157.031242 
L 306.352935 -156.921846 
L 336.384455 -150.178306 
L 366.415974 -158.628803 
L 396.447494 -150.993376 
L 426.479014 -155.15602 
L 456.510533 -141.715444 
L 486.542053 -154.313344 
L 516.573572 -146.561463 
L 546.605092 -140.25882 
L 576.636611 -146.925152 
L 606.668131 -138.583399 
L 636.699651 -148.379931 
L 666.73117 -57.415341 
L 696.76269 -128.808623 
L 726.794209 -109.862686 
L 756.825729 -122.810632 
L 786.857248 -150.936533 
L 816.888768 -140.826088 
L 846.920288 -140.461029 
L 876.951807 -116.10635 
L 906.983327 -166.101173 
L 906.983327 -358.631631 
L 906.983327 -358.631631 
L 876.951807 -454.597159 
L 846.920288 -329.417833 
L 816.888768 -312.81416 
L 786.857248 -262.443854 
L 756.825729 -274.38045 
L 726.794209 -288.821714 
L 696.76269 -276.138073 
L 666.73117 -353.895123 
L 636.699651 -207.42696 
L 606.668131 -209.229444 
L 576.636611 -212.438057 
L 546.605092 -215.754746 
L 516.573572 -197.38388 
L 486.542053 -192.258682 
L 456.510533 -221.307934 
L 426.479014 -190.766737 
L 396.447494 -212.346876 
L 366.415974 -184.880769 
L 336.384455 -205.551796 
L 306.352935 -203.254789 
L 276.321416 -229.9813 
L 246.289896 -265.290421 
L 216.258377 -229.874048 
L 186.226857 -189.13014 
L 156.195337 -186.364127 
L 126.163818 -205.151501 
L 96.132298 -168.811212 
z
" style="stroke: #1f77b4; stroke-opacity: 0.1"/>
    </defs>
    <g clip-path="url(#p968f1543db)">
     <use xlink:href="#m383cf204de" x="0" y="496.774375" style="fill: #1f77b4; fill-opacity: 0.1; stroke: #1f77b4; stroke-opacity: 0.1"/>
    </g>
   </g>
   <g id="matplotlib.axis_1">
    <g id="xtick_1">
     <g id="line2d_1">
      <defs>
       <path id="m695599b320" d="M 0 0 
L 0 3.5 
" style="stroke: #000000; stroke-width: 0.8"/>
      </defs>
      <g>
       <use xlink:href="#m695599b320" x="96.132298" y="459.218125" style="stroke: #000000; stroke-width: 0.8"/>
      </g>
     </g>
     <g id="text_1">
      <!-- 1995 -->
      <g transform="translate(83.407298 473.816563) scale(0.1 -0.1)">
       <defs>
        <path id="DejaVuSans-31" d="M 794 531 
L 1825 531 
L 1825 4091 
L 703 3866 
L 703 4441 
L 1819 4666 
L 2450 4666 
L 2450 531 
L 3481 531 
L 3481 0 
L 794 0 
L 794 531 
z
" transform="scale(0.015625)"/>
        <path id="DejaVuSans-39" d="M 703 97 
L 703 672 
Q 941 559 1184 500 
Q 1428 441 1663 441 
Q 2288 441 2617 861 
Q 2947 1281 2994 2138 
Q 2813 1869 2534 1725 
Q 2256 1581 1919 1581 
Q 1219 1581 811 2004 
Q 403 2428 403 3163 
Q 403 3881 828 4315 
Q 1253 4750 1959 4750 
Q 2769 4750 3195 4129 
Q 3622 3509 3622 2328 
Q 3622 1225 3098 567 
Q 2575 -91 1691 -91 
Q 1453 -91 1209 -44 
Q 966 3 703 97 
z
M 1959 2075 
Q 2384 2075 2632 2365 
Q 2881 2656 2881 3163 
Q 2881 3666 2632 3958 
Q 2384 4250 1959 4250 
Q 1534 4250 1286 3958 
Q 1038 3666 1038 3163 
Q 1038 2656 1286 2365 
Q 1534 2075 1959 2075 
z
" transform="scale(0.015625)"/>
        <path id="DejaVuSans-35" d="M 691 4666 
L 3169 4666 
L 3169 4134 
L 1269 4134 
L 1269 2991 
Q 1406 3038 1543 3061 
Q 1681 3084 1819 3084 
Q 2600 3084 3056 2656 
Q 3513 2228 3513 1497 
Q 3513 744 3044 326 
Q 2575 -91 1722 -91 
Q 1428 -91 1123 -41 
Q 819 9 494 109 
L 494 744 
Q 775 591 1075 516 
Q 1375 441 1709 441 
Q 2250 441 2565 725 
Q 2881 1009 2881 1497 
Q 2881 1984 2565 2268 
Q 2250 2553 1709 2553 
Q 1456 2553 1204 2497 
Q 953 2441 691 2322 
L 691 4666 
z
" transform="scale(0.015625)"/>
       </defs>
       <use xlink:href="#DejaVuSans-31"/>
       <use xlink:href="#DejaVuSans-39" transform="translate(63.623047 0)"/>
       <use xlink:href="#DejaVuSans-39" transform="translate(127.246094 0)"/>
       <use xlink:href="#DejaVuSans-35" transform="translate(190.869141 0)"/>
      </g>
     </g>
    </g>
    <g id="xtick_2">
     <g id="line2d_2">
      <g>
       <use xlink:href="#m695599b320" x="246.289896" y="459.218125" style="stroke: #000000; stroke-width: 0.8"/>
      </g>
     </g>
     <g id="text_2">
      <!-- 2000 -->
      <g transform="translate(233.564896 473.816563) scale(0.1 -0.1)">
       <defs>
        <path id="DejaVuSans-32" d="M 1228 531 
L 3431 531 
L 3431 0 
L 469 0 
L 469 531 
Q 828 903 1448 1529 
Q 2069 2156 2228 2338 
Q 2531 2678 2651 2914 
Q 2772 3150 2772 3378 
Q 2772 3750 2511 3984 
Q 2250 4219 1831 4219 
Q 1534 4219 1204 4116 
Q 875 4013 500 3803 
L 500 4441 
Q 881 4594 1212 4672 
Q 1544 4750 1819 4750 
Q 2544 4750 2975 4387 
Q 3406 4025 3406 3419 
Q 3406 3131 3298 2873 
Q 3191 2616 2906 2266 
Q 2828 2175 2409 1742 
Q 1991 1309 1228 531 
z
" transform="scale(0.015625)"/>
        <path id="DejaVuSans-30" d="M 2034 4250 
Q 1547 4250 1301 3770 
Q 1056 3291 1056 2328 
Q 1056 1369 1301 889 
Q 1547 409 2034 409 
Q 2525 409 2770 889 
Q 3016 1369 3016 2328 
Q 3016 3291 2770 3770 
Q 2525 4250 2034 4250 
z
M 2034 4750 
Q 2819 4750 3233 4129 
Q 3647 3509 3647 2328 
Q 3647 1150 3233 529 
Q 2819 -91 2034 -91 
Q 1250 -91 836 529 
Q 422 1150 422 2328 
Q 422 3509 836 4129 
Q 1250 4750 2034 4750 
z
" transform="scale(0.015625)"/>
       </defs>
       <use xlink:href="#DejaVuSans-32"/>
       <use xlink:href="#DejaVuSans-30" transform="translate(63.623047 0)"/>
       <use xlink:href="#DejaVuSans-30" transform="translate(127.246094 0)"/>
       <use xlink:href="#DejaVuSans-30" transform="translate(190.869141 0)"/>
      </g>
     </g>
    </g>
    <g id="xtick_3">
     <g id="line2d_3">
      <g>
       <use xlink:href="#m695599b320" x="396.447494" y="459.218125" style="stroke: #000000; stroke-width: 0.8"/>
      </g>
     </g>
     <g id="text_3">
      <!-- 2005 -->
      <g transform="translate(383.722494 473.816563) scale(0.1 -0.1)">
       <use xlink:href="#DejaVuSans-32"/>
       <use xlink:href="#DejaVuSans-30" transform="translate(63.623047 0)"/>
       <use xlink:href="#DejaVuSans-30" transform="translate(127.246094 0)"/>
       <use xlink:href="#DejaVuSans-35" transform="translate(190.869141 0)"/>
      </g>
     </g>
    </g>
    <g id="xtick_4">
     <g id="line2d_4">
      <g>
       <use xlink:href="#m695599b320" x="546.605092" y="459.218125" style="stroke: #000000; stroke-width: 0.8"/>
      </g>
     </g>
     <g id="text_4">
      <!-- 2010 -->
      <g transform="translate(533.880092 473.816563) scale(0.1 -0.1)">
       <use xlink:href="#DejaVuSans-32"/>
       <use xlink:href="#DejaVuSans-30" transform="translate(63.623047 0)"/>
       <use xlink:href="#DejaVuSans-31" transform="translate(127.246094 0)"/>
       <use xlink:href="#DejaVuSans-30" transform="translate(190.869141 0)"/>
      </g>
     </g>
    </g>
    <g id="xtick_5">
     <g id="line2d_5">
      <g>
       <use xlink:href="#m695599b320" x="696.76269" y="459.218125" style="stroke: #000000; stroke-width: 0.8"/>
      </g>
     </g>
     <g id="text_5">
      <!-- 2015 -->
      <g transform="translate(684.03769 473.816563) scale(0.1 -0.1)">
       <use xlink:href="#DejaVuSans-32"/>
       <use xlink:href="#DejaVuSans-30" transform="translate(63.623047 0)"/>
       <use xlink:href="#DejaVuSans-31" transform="translate(127.246094 0)"/>
       <use xlink:href="#DejaVuSans-35" transform="translate(190.869141 0)"/>
      </g>
     </g>
    </g>
    <g id="xtick_6">
     <g id="line2d_6">
      <g>
       <use xlink:href="#m695599b320" x="846.920288" y="459.218125" style="stroke: #000000; stroke-width: 0.8"/>
      </g>
     </g>
     <g id="text_6">
      <!-- 2020 -->
      <g transform="translate(834.195288 473.816563) scale(0.1 -0.1)">
       <use xlink:href="#DejaVuSans-32"/>
       <use xlink:href="#DejaVuSans-30" transform="translate(63.623047 0)"/>
       <use xlink:href="#DejaVuSans-32" transform="translate(127.246094 0)"/>
       <use xlink:href="#DejaVuSans-30" transform="translate(190.869141 0)"/>
      </g>
     </g>
    </g>
    <g id="text_7">
     <!-- Year -->
     <g transform="translate(490.970313 487.494687) scale(0.1 -0.1)">
      <defs>
       <path id="DejaVuSans-59" d="M -13 4666 
L 666 4666 
L 1959 2747 
L 3244 4666 
L 3922 4666 
L 2272 2222 
L 2272 0 
L 1638 0 
L 1638 2222 
L -13 4666 
z
" transform="scale(0.015625)"/>
       <path id="DejaVuSans-65" d="M 3597 1894 
L 3597 1613 
L 953 1613 
Q 991 1019 1311 708 
Q 1631 397 2203 397 
Q 2534 397 2845 478 
Q 3156 559 3463 722 
L 3463 178 
Q 3153 47 2828 -22 
Q 2503 -91 2169 -91 
Q 1331 -91 842 396 
Q 353 884 353 1716 
Q 353 2575 817 3079 
Q 1281 3584 2069 3584 
Q 2775 3584 3186 3129 
Q 3597 2675 3597 1894 
z
M 3022 2063 
Q 3016 2534 2758 2815 
Q 2500 3097 2075 3097 
Q 1594 3097 1305 2825 
Q 1016 2553 972 2059 
L 3022 2063 
z
" transform="scale(0.015625)"/>
       <path id="DejaVuSans-61" d="M 2194 1759 
Q 1497 1759 1228 1600 
Q 959 1441 959 1056 
Q 959 750 1161 570 
Q 1363 391 1709 391 
Q 2188 391 2477 730 
Q 2766 1069 2766 1631 
L 2766 1759 
L 2194 1759 
z
M 3341 1997 
L 3341 0 
L 2766 0 
L 2766 531 
Q 2569 213 2275 61 
Q 1981 -91 1556 -91 
Q 1019 -91 701 211 
Q 384 513 384 1019 
Q 384 1609 779 1909 
Q 1175 2209 1959 2209 
L 2766 2209 
L 2766 2266 
Q 2766 2663 2505 2880 
Q 2244 3097 1772 3097 
Q 1472 3097 1187 3025 
Q 903 2953 641 2809 
L 641 3341 
Q 956 3463 1253 3523 
Q 1550 3584 1831 3584 
Q 2591 3584 2966 3190 
Q 3341 2797 3341 1997 
z
" transform="scale(0.015625)"/>
       <path id="DejaVuSans-72" d="M 2631 2963 
Q 2534 3019 2420 3045 
Q 2306 3072 2169 3072 
Q 1681 3072 1420 2755 
Q 1159 2438 1159 1844 
L 1159 0 
L 581 0 
L 581 3500 
L 1159 3500 
L 1159 2956 
Q 1341 3275 1631 3429 
Q 1922 3584 2338 3584 
Q 2397 3584 2469 3576 
Q 2541 3569 2628 3553 
L 2631 2963 
z
" transform="scale(0.015625)"/>
      </defs>
      <use xlink:href="#DejaVuSans-59"/>
      <use xlink:href="#DejaVuSans-65" transform="translate(47.833984 0)"/>
      <use xlink:href="#DejaVuSans-61" transform="translate(109.357422 0)"/>
      <use xlink:href="#DejaVuSans-72" transform="translate(170.636719 0)"/>
     </g>
    </g>
   </g>
   <g id="matplotlib.axis_2">
    <g id="ytick_1">
     <g id="line2d_7">
      <defs>
       <path id="m161912d3a1" d="M 0 0 
L -3.5 0 
" style="stroke: #000000; stroke-width: 0.8"/>
      </defs>
      <g>
       <use xlink:href="#m161912d3a1" x="48.982813" y="423.468085" style="stroke: #000000; stroke-width: 0.8"/>
      </g>
     </g>
     <g id="text_8">
      <!-- −50 -->
      <g style="fill: #1f77b4" transform="translate(20.878125 427.267304) scale(0.1 -0.1)">
       <defs>
        <path id="DejaVuSans-2212" d="M 678 2272 
L 4684 2272 
L 4684 1741 
L 678 1741 
L 678 2272 
z
" transform="scale(0.015625)"/>
       </defs>
       <use xlink:href="#DejaVuSans-2212"/>
       <use xlink:href="#DejaVuSans-35" transform="translate(83.789062 0)"/>
       <use xlink:href="#DejaVuSans-30" transform="translate(147.412109 0)"/>
      </g>
     </g>
    </g>
    <g id="ytick_2">
     <g id="line2d_8">
      <g>
       <use xlink:href="#m161912d3a1" x="48.982813" y="342.387171" style="stroke: #000000; stroke-width: 0.8"/>
      </g>
     </g>
     <g id="text_9">
      <!-- 0 -->
      <g style="fill: #1f77b4" transform="translate(35.620313 346.18639) scale(0.1 -0.1)">
       <use xlink:href="#DejaVuSans-30"/>
      </g>
     </g>
    </g>
    <g id="ytick_3">
     <g id="line2d_9">
      <g>
       <use xlink:href="#m161912d3a1" x="48.982813" y="261.306256" style="stroke: #000000; stroke-width: 0.8"/>
      </g>
     </g>
     <g id="text_10">
      <!-- 50 -->
      <g style="fill: #1f77b4" transform="translate(29.257813 265.105475) scale(0.1 -0.1)">
       <use xlink:href="#DejaVuSans-35"/>
       <use xlink:href="#DejaVuSans-30" transform="translate(63.623047 0)"/>
      </g>
     </g>
    </g>
    <g id="ytick_4">
     <g id="line2d_10">
      <g>
       <use xlink:href="#m161912d3a1" x="48.982813" y="180.225342" style="stroke: #000000; stroke-width: 0.8"/>
      </g>
     </g>
     <g id="text_11">
      <!-- 100 -->
      <g style="fill: #1f77b4" transform="translate(22.895313 184.02456) scale(0.1 -0.1)">
       <use xlink:href="#DejaVuSans-31"/>
       <use xlink:href="#DejaVuSans-30" transform="translate(63.623047 0)"/>
       <use xlink:href="#DejaVuSans-30" transform="translate(127.246094 0)"/>
      </g>
     </g>
    </g>
    <g id="ytick_5">
     <g id="line2d_11">
      <g>
       <use xlink:href="#m161912d3a1" x="48.982813" y="99.144427" style="stroke: #000000; stroke-width: 0.8"/>
      </g>
     </g>
     <g id="text_12">
      <!-- 150 -->
      <g style="fill: #1f77b4" transform="translate(22.895313 102.943646) scale(0.1 -0.1)">
       <use xlink:href="#DejaVuSans-31"/>
       <use xlink:href="#DejaVuSans-35" transform="translate(63.623047 0)"/>
       <use xlink:href="#DejaVuSans-30" transform="translate(127.246094 0)"/>
      </g>
     </g>
    </g>
    <g id="text_13">
     <!-- Mean Log Investment Amount -->
     <g style="fill: #1f77b4" transform="translate(14.798438 316.05875) rotate(-90) scale(0.1 -0.1)">
      <defs>
       <path id="DejaVuSans-4d" d="M 628 4666 
L 1569 4666 
L 2759 1491 
L 3956 4666 
L 4897 4666 
L 4897 0 
L 4281 0 
L 4281 4097 
L 3078 897 
L 2444 897 
L 1241 4097 
L 1241 0 
L 628 0 
L 628 4666 
z
" transform="scale(0.015625)"/>
       <path id="DejaVuSans-6e" d="M 3513 2113 
L 3513 0 
L 2938 0 
L 2938 2094 
Q 2938 2591 2744 2837 
Q 2550 3084 2163 3084 
Q 1697 3084 1428 2787 
Q 1159 2491 1159 1978 
L 1159 0 
L 581 0 
L 581 3500 
L 1159 3500 
L 1159 2956 
Q 1366 3272 1645 3428 
Q 1925 3584 2291 3584 
Q 2894 3584 3203 3211 
Q 3513 2838 3513 2113 
z
" transform="scale(0.015625)"/>
       <path id="DejaVuSans-20" transform="scale(0.015625)"/>
       <path id="DejaVuSans-4c" d="M 628 4666 
L 1259 4666 
L 1259 531 
L 3531 531 
L 3531 0 
L 628 0 
L 628 4666 
z
" transform="scale(0.015625)"/>
       <path id="DejaVuSans-6f" d="M 1959 3097 
Q 1497 3097 1228 2736 
Q 959 2375 959 1747 
Q 959 1119 1226 758 
Q 1494 397 1959 397 
Q 2419 397 2687 759 
Q 2956 1122 2956 1747 
Q 2956 2369 2687 2733 
Q 2419 3097 1959 3097 
z
M 1959 3584 
Q 2709 3584 3137 3096 
Q 3566 2609 3566 1747 
Q 3566 888 3137 398 
Q 2709 -91 1959 -91 
Q 1206 -91 779 398 
Q 353 888 353 1747 
Q 353 2609 779 3096 
Q 1206 3584 1959 3584 
z
" transform="scale(0.015625)"/>
       <path id="DejaVuSans-67" d="M 2906 1791 
Q 2906 2416 2648 2759 
Q 2391 3103 1925 3103 
Q 1463 3103 1205 2759 
Q 947 2416 947 1791 
Q 947 1169 1205 825 
Q 1463 481 1925 481 
Q 2391 481 2648 825 
Q 2906 1169 2906 1791 
z
M 3481 434 
Q 3481 -459 3084 -895 
Q 2688 -1331 1869 -1331 
Q 1566 -1331 1297 -1286 
Q 1028 -1241 775 -1147 
L 775 -588 
Q 1028 -725 1275 -790 
Q 1522 -856 1778 -856 
Q 2344 -856 2625 -561 
Q 2906 -266 2906 331 
L 2906 616 
Q 2728 306 2450 153 
Q 2172 0 1784 0 
Q 1141 0 747 490 
Q 353 981 353 1791 
Q 353 2603 747 3093 
Q 1141 3584 1784 3584 
Q 2172 3584 2450 3431 
Q 2728 3278 2906 2969 
L 2906 3500 
L 3481 3500 
L 3481 434 
z
" transform="scale(0.015625)"/>
       <path id="DejaVuSans-49" d="M 628 4666 
L 1259 4666 
L 1259 0 
L 628 0 
L 628 4666 
z
" transform="scale(0.015625)"/>
       <path id="DejaVuSans-76" d="M 191 3500 
L 800 3500 
L 1894 563 
L 2988 3500 
L 3597 3500 
L 2284 0 
L 1503 0 
L 191 3500 
z
" transform="scale(0.015625)"/>
       <path id="DejaVuSans-73" d="M 2834 3397 
L 2834 2853 
Q 2591 2978 2328 3040 
Q 2066 3103 1784 3103 
Q 1356 3103 1142 2972 
Q 928 2841 928 2578 
Q 928 2378 1081 2264 
Q 1234 2150 1697 2047 
L 1894 2003 
Q 2506 1872 2764 1633 
Q 3022 1394 3022 966 
Q 3022 478 2636 193 
Q 2250 -91 1575 -91 
Q 1294 -91 989 -36 
Q 684 19 347 128 
L 347 722 
Q 666 556 975 473 
Q 1284 391 1588 391 
Q 1994 391 2212 530 
Q 2431 669 2431 922 
Q 2431 1156 2273 1281 
Q 2116 1406 1581 1522 
L 1381 1569 
Q 847 1681 609 1914 
Q 372 2147 372 2553 
Q 372 3047 722 3315 
Q 1072 3584 1716 3584 
Q 2034 3584 2315 3537 
Q 2597 3491 2834 3397 
z
" transform="scale(0.015625)"/>
       <path id="DejaVuSans-74" d="M 1172 4494 
L 1172 3500 
L 2356 3500 
L 2356 3053 
L 1172 3053 
L 1172 1153 
Q 1172 725 1289 603 
Q 1406 481 1766 481 
L 2356 481 
L 2356 0 
L 1766 0 
Q 1100 0 847 248 
Q 594 497 594 1153 
L 594 3053 
L 172 3053 
L 172 3500 
L 594 3500 
L 594 4494 
L 1172 4494 
z
" transform="scale(0.015625)"/>
       <path id="DejaVuSans-6d" d="M 3328 2828 
Q 3544 3216 3844 3400 
Q 4144 3584 4550 3584 
Q 5097 3584 5394 3201 
Q 5691 2819 5691 2113 
L 5691 0 
L 5113 0 
L 5113 2094 
Q 5113 2597 4934 2840 
Q 4756 3084 4391 3084 
Q 3944 3084 3684 2787 
Q 3425 2491 3425 1978 
L 3425 0 
L 2847 0 
L 2847 2094 
Q 2847 2600 2669 2842 
Q 2491 3084 2119 3084 
Q 1678 3084 1418 2786 
Q 1159 2488 1159 1978 
L 1159 0 
L 581 0 
L 581 3500 
L 1159 3500 
L 1159 2956 
Q 1356 3278 1631 3431 
Q 1906 3584 2284 3584 
Q 2666 3584 2933 3390 
Q 3200 3197 3328 2828 
z
" transform="scale(0.015625)"/>
       <path id="DejaVuSans-41" d="M 2188 4044 
L 1331 1722 
L 3047 1722 
L 2188 4044 
z
M 1831 4666 
L 2547 4666 
L 4325 0 
L 3669 0 
L 3244 1197 
L 1141 1197 
L 716 0 
L 50 0 
L 1831 4666 
z
" transform="scale(0.015625)"/>
       <path id="DejaVuSans-75" d="M 544 1381 
L 544 3500 
L 1119 3500 
L 1119 1403 
Q 1119 906 1312 657 
Q 1506 409 1894 409 
Q 2359 409 2629 706 
Q 2900 1003 2900 1516 
L 2900 3500 
L 3475 3500 
L 3475 0 
L 2900 0 
L 2900 538 
Q 2691 219 2414 64 
Q 2138 -91 1772 -91 
Q 1169 -91 856 284 
Q 544 659 544 1381 
z
M 1991 3584 
L 1991 3584 
z
" transform="scale(0.015625)"/>
      </defs>
      <use xlink:href="#DejaVuSans-4d"/>
      <use xlink:href="#DejaVuSans-65" transform="translate(86.279297 0)"/>
      <use xlink:href="#DejaVuSans-61" transform="translate(147.802734 0)"/>
      <use xlink:href="#DejaVuSans-6e" transform="translate(209.082031 0)"/>
      <use xlink:href="#DejaVuSans-20" transform="translate(272.460938 0)"/>
      <use xlink:href="#DejaVuSans-4c" transform="translate(304.248047 0)"/>
      <use xlink:href="#DejaVuSans-6f" transform="translate(358.210938 0)"/>
      <use xlink:href="#DejaVuSans-67" transform="translate(419.392578 0)"/>
      <use xlink:href="#DejaVuSans-20" transform="translate(482.869141 0)"/>
      <use xlink:href="#DejaVuSans-49" transform="translate(514.65625 0)"/>
      <use xlink:href="#DejaVuSans-6e" transform="translate(544.148438 0)"/>
      <use xlink:href="#DejaVuSans-76" transform="translate(607.527344 0)"/>
      <use xlink:href="#DejaVuSans-65" transform="translate(666.707031 0)"/>
      <use xlink:href="#DejaVuSans-73" transform="translate(728.230469 0)"/>
      <use xlink:href="#DejaVuSans-74" transform="translate(780.330078 0)"/>
      <use xlink:href="#DejaVuSans-6d" transform="translate(819.539062 0)"/>
      <use xlink:href="#DejaVuSans-65" transform="translate(916.951172 0)"/>
      <use xlink:href="#DejaVuSans-6e" transform="translate(978.474609 0)"/>
      <use xlink:href="#DejaVuSans-74" transform="translate(1041.853516 0)"/>
      <use xlink:href="#DejaVuSans-20" transform="translate(1081.0625 0)"/>
      <use xlink:href="#DejaVuSans-41" transform="translate(1112.849609 0)"/>
      <use xlink:href="#DejaVuSans-6d" transform="translate(1181.257812 0)"/>
      <use xlink:href="#DejaVuSans-6f" transform="translate(1278.669922 0)"/>
      <use xlink:href="#DejaVuSans-75" transform="translate(1339.851562 0)"/>
      <use xlink:href="#DejaVuSans-6e" transform="translate(1403.230469 0)"/>
      <use xlink:href="#DejaVuSans-74" transform="translate(1466.609375 0)"/>
     </g>
    </g>
   </g>
   <g id="line2d_12">
    <path d="M 96.132298 333.093629 
L 126.163818 307.233987 
L 156.195337 325.852928 
L 186.226857 323.651771 
L 216.258377 305.718115 
L 246.289896 291.301713 
L 276.321416 303.268104 
L 306.352935 316.686057 
L 336.384455 318.909323 
L 366.415974 325.019589 
L 396.447494 315.104249 
L 426.479014 323.812996 
L 456.510533 315.262684 
L 486.542053 323.488362 
L 516.573572 324.801704 
L 546.605092 318.767593 
L 576.636611 317.09277 
L 606.668131 322.867953 
L 636.699651 318.870931 
L 666.73117 291.11914 
L 696.76269 294.301027 
L 726.794209 297.432177 
L 756.825729 298.178834 
L 786.857248 290.084178 
L 816.888768 269.954254 
L 846.920288 261.834947 
L 876.951807 211.422614 
L 906.983327 234.40797 
" clip-path="url(#p968f1543db)" style="fill: none; stroke: #1f77b4; stroke-width: 1.5; stroke-linecap: square"/>
    <defs>
     <path id="m2e92f5187f" d="M 0 3 
C 0.795609 3 1.55874 2.683901 2.12132 2.12132 
C 2.683901 1.55874 3 0.795609 3 0 
C 3 -0.795609 2.683901 -1.55874 2.12132 -2.12132 
C 1.55874 -2.683901 0.795609 -3 0 -3 
C -0.795609 -3 -1.55874 -2.683901 -2.12132 -2.12132 
C -2.683901 -1.55874 -3 -0.795609 -3 0 
C -3 0.795609 -2.683901 1.55874 -2.12132 2.12132 
C -1.55874 2.683901 -0.795609 3 0 3 
z
" style="stroke: #1f77b4"/>
    </defs>
    <g clip-path="url(#p968f1543db)">
     <use xlink:href="#m2e92f5187f" x="96.132298" y="333.093629" style="fill: #1f77b4; stroke: #1f77b4"/>
     <use xlink:href="#m2e92f5187f" x="126.163818" y="307.233987" style="fill: #1f77b4; stroke: #1f77b4"/>
     <use xlink:href="#m2e92f5187f" x="156.195337" y="325.852928" style="fill: #1f77b4; stroke: #1f77b4"/>
     <use xlink:href="#m2e92f5187f" x="186.226857" y="323.651771" style="fill: #1f77b4; stroke: #1f77b4"/>
     <use xlink:href="#m2e92f5187f" x="216.258377" y="305.718115" style="fill: #1f77b4; stroke: #1f77b4"/>
     <use xlink:href="#m2e92f5187f" x="246.289896" y="291.301713" style="fill: #1f77b4; stroke: #1f77b4"/>
     <use xlink:href="#m2e92f5187f" x="276.321416" y="303.268104" style="fill: #1f77b4; stroke: #1f77b4"/>
     <use xlink:href="#m2e92f5187f" x="306.352935" y="316.686057" style="fill: #1f77b4; stroke: #1f77b4"/>
     <use xlink:href="#m2e92f5187f" x="336.384455" y="318.909323" style="fill: #1f77b4; stroke: #1f77b4"/>
     <use xlink:href="#m2e92f5187f" x="366.415974" y="325.019589" style="fill: #1f77b4; stroke: #1f77b4"/>
     <use xlink:href="#m2e92f5187f" x="396.447494" y="315.104249" style="fill: #1f77b4; stroke: #1f77b4"/>
     <use xlink:href="#m2e92f5187f" x="426.479014" y="323.812996" style="fill: #1f77b4; stroke: #1f77b4"/>
     <use xlink:href="#m2e92f5187f" x="456.510533" y="315.262684" style="fill: #1f77b4; stroke: #1f77b4"/>
     <use xlink:href="#m2e92f5187f" x="486.542053" y="323.488362" style="fill: #1f77b4; stroke: #1f77b4"/>
     <use xlink:href="#m2e92f5187f" x="516.573572" y="324.801704" style="fill: #1f77b4; stroke: #1f77b4"/>
     <use xlink:href="#m2e92f5187f" x="546.605092" y="318.767593" style="fill: #1f77b4; stroke: #1f77b4"/>
     <use xlink:href="#m2e92f5187f" x="576.636611" y="317.09277" style="fill: #1f77b4; stroke: #1f77b4"/>
     <use xlink:href="#m2e92f5187f" x="606.668131" y="322.867953" style="fill: #1f77b4; stroke: #1f77b4"/>
     <use xlink:href="#m2e92f5187f" x="636.699651" y="318.870931" style="fill: #1f77b4; stroke: #1f77b4"/>
     <use xlink:href="#m2e92f5187f" x="666.73117" y="291.11914" style="fill: #1f77b4; stroke: #1f77b4"/>
     <use xlink:href="#m2e92f5187f" x="696.76269" y="294.301027" style="fill: #1f77b4; stroke: #1f77b4"/>
     <use xlink:href="#m2e92f5187f" x="726.794209" y="297.432177" style="fill: #1f77b4; stroke: #1f77b4"/>
     <use xlink:href="#m2e92f5187f" x="756.825729" y="298.178834" style="fill: #1f77b4; stroke: #1f77b4"/>
     <use xlink:href="#m2e92f5187f" x="786.857248" y="290.084178" style="fill: #1f77b4; stroke: #1f77b4"/>
     <use xlink:href="#m2e92f5187f" x="816.888768" y="269.954254" style="fill: #1f77b4; stroke: #1f77b4"/>
     <use xlink:href="#m2e92f5187f" x="846.920288" y="261.834947" style="fill: #1f77b4; stroke: #1f77b4"/>
     <use xlink:href="#m2e92f5187f" x="876.951807" y="211.422614" style="fill: #1f77b4; stroke: #1f77b4"/>
     <use xlink:href="#m2e92f5187f" x="906.983327" y="234.40797" style="fill: #1f77b4; stroke: #1f77b4"/>
    </g>
   </g>
   <g id="patch_3">
    <path d="M 48.982813 459.218125 
L 48.982813 22.318125 
" style="fill: none; stroke: #000000; stroke-width: 0.8; stroke-linejoin: miter; stroke-linecap: square"/>
   </g>
   <g id="patch_4">
    <path d="M 954.132812 459.218125 
L 954.132812 22.318125 
" style="fill: none; stroke: #000000; stroke-width: 0.8; stroke-linejoin: miter; stroke-linecap: square"/>
   </g>
   <g id="patch_5">
    <path d="M 48.982812 459.218125 
L 954.132812 459.218125 
" style="fill: none; stroke: #000000; stroke-width: 0.8; stroke-linejoin: miter; stroke-linecap: square"/>
   </g>
   <g id="patch_6">
    <path d="M 48.982812 22.318125 
L 954.132812 22.318125 
" style="fill: none; stroke: #000000; stroke-width: 0.8; stroke-linejoin: miter; stroke-linecap: square"/>
   </g>
   <g id="legend_1">
    <g id="patch_7">
     <path d="M 55.982813 59.674375 
L 172.11875 59.674375 
Q 174.11875 59.674375 174.11875 57.674375 
L 174.11875 29.318125 
Q 174.11875 27.318125 172.11875 27.318125 
L 55.982813 27.318125 
Q 53.982813 27.318125 53.982813 29.318125 
L 53.982813 57.674375 
Q 53.982813 59.674375 55.982813 59.674375 
z
" style="fill: #ffffff; opacity: 0.8; stroke: #cccccc; stroke-linejoin: miter"/>
    </g>
    <g id="line2d_13">
     <path d="M 57.982813 35.416562 
L 67.982813 35.416562 
L 77.982813 35.416562 
" style="fill: none; stroke: #1f77b4; stroke-width: 1.5; stroke-linecap: square"/>
     <g>
      <use xlink:href="#m2e92f5187f" x="67.982813" y="35.416562" style="fill: #1f77b4; stroke: #1f77b4"/>
     </g>
    </g>
    <g id="text_14">
     <!-- Mean Deal Size -->
     <g transform="translate(85.982813 38.916562) scale(0.1 -0.1)">
      <defs>
       <path id="DejaVuSans-44" d="M 1259 4147 
L 1259 519 
L 2022 519 
Q 2988 519 3436 956 
Q 3884 1394 3884 2338 
Q 3884 3275 3436 3711 
Q 2988 4147 2022 4147 
L 1259 4147 
z
M 628 4666 
L 1925 4666 
Q 3281 4666 3915 4102 
Q 4550 3538 4550 2338 
Q 4550 1131 3912 565 
Q 3275 0 1925 0 
L 628 0 
L 628 4666 
z
" transform="scale(0.015625)"/>
       <path id="DejaVuSans-6c" d="M 603 4863 
L 1178 4863 
L 1178 0 
L 603 0 
L 603 4863 
z
" transform="scale(0.015625)"/>
       <path id="DejaVuSans-53" d="M 3425 4513 
L 3425 3897 
Q 3066 4069 2747 4153 
Q 2428 4238 2131 4238 
Q 1616 4238 1336 4038 
Q 1056 3838 1056 3469 
Q 1056 3159 1242 3001 
Q 1428 2844 1947 2747 
L 2328 2669 
Q 3034 2534 3370 2195 
Q 3706 1856 3706 1288 
Q 3706 609 3251 259 
Q 2797 -91 1919 -91 
Q 1588 -91 1214 -16 
Q 841 59 441 206 
L 441 856 
Q 825 641 1194 531 
Q 1563 422 1919 422 
Q 2459 422 2753 634 
Q 3047 847 3047 1241 
Q 3047 1584 2836 1778 
Q 2625 1972 2144 2069 
L 1759 2144 
Q 1053 2284 737 2584 
Q 422 2884 422 3419 
Q 422 4038 858 4394 
Q 1294 4750 2059 4750 
Q 2388 4750 2728 4690 
Q 3069 4631 3425 4513 
z
" transform="scale(0.015625)"/>
       <path id="DejaVuSans-69" d="M 603 3500 
L 1178 3500 
L 1178 0 
L 603 0 
L 603 3500 
z
M 603 4863 
L 1178 4863 
L 1178 4134 
L 603 4134 
L 603 4863 
z
" transform="scale(0.015625)"/>
       <path id="DejaVuSans-7a" d="M 353 3500 
L 3084 3500 
L 3084 2975 
L 922 459 
L 3084 459 
L 3084 0 
L 275 0 
L 275 525 
L 2438 3041 
L 353 3041 
L 353 3500 
z
" transform="scale(0.015625)"/>
      </defs>
      <use xlink:href="#DejaVuSans-4d"/>
      <use xlink:href="#DejaVuSans-65" transform="translate(86.279297 0)"/>
      <use xlink:href="#DejaVuSans-61" transform="translate(147.802734 0)"/>
      <use xlink:href="#DejaVuSans-6e" transform="translate(209.082031 0)"/>
      <use xlink:href="#DejaVuSans-20" transform="translate(272.460938 0)"/>
      <use xlink:href="#DejaVuSans-44" transform="translate(304.248047 0)"/>
      <use xlink:href="#DejaVuSans-65" transform="translate(381.25 0)"/>
      <use xlink:href="#DejaVuSans-61" transform="translate(442.773438 0)"/>
      <use xlink:href="#DejaVuSans-6c" transform="translate(504.052734 0)"/>
      <use xlink:href="#DejaVuSans-20" transform="translate(531.835938 0)"/>
      <use xlink:href="#DejaVuSans-53" transform="translate(563.623047 0)"/>
      <use xlink:href="#DejaVuSans-69" transform="translate(627.099609 0)"/>
      <use xlink:href="#DejaVuSans-7a" transform="translate(654.882812 0)"/>
      <use xlink:href="#DejaVuSans-65" transform="translate(707.373047 0)"/>
     </g>
    </g>
    <g id="patch_8">
     <path d="M 57.982813 53.594688 
L 77.982813 53.594688 
L 77.982813 46.594688 
L 57.982813 46.594688 
z
" style="fill: #ff7f0e; opacity: 0.3"/>
    </g>
    <g id="text_15">
     <!-- Number of Deals -->
     <g transform="translate(85.982813 53.594688) scale(0.1 -0.1)">
      <defs>
       <path id="DejaVuSans-4e" d="M 628 4666 
L 1478 4666 
L 3547 763 
L 3547 4666 
L 4159 4666 
L 4159 0 
L 3309 0 
L 1241 3903 
L 1241 0 
L 628 0 
L 628 4666 
z
" transform="scale(0.015625)"/>
       <path id="DejaVuSans-62" d="M 3116 1747 
Q 3116 2381 2855 2742 
Q 2594 3103 2138 3103 
Q 1681 3103 1420 2742 
Q 1159 2381 1159 1747 
Q 1159 1113 1420 752 
Q 1681 391 2138 391 
Q 2594 391 2855 752 
Q 3116 1113 3116 1747 
z
M 1159 2969 
Q 1341 3281 1617 3432 
Q 1894 3584 2278 3584 
Q 2916 3584 3314 3078 
Q 3713 2572 3713 1747 
Q 3713 922 3314 415 
Q 2916 -91 2278 -91 
Q 1894 -91 1617 61 
Q 1341 213 1159 525 
L 1159 0 
L 581 0 
L 581 4863 
L 1159 4863 
L 1159 2969 
z
" transform="scale(0.015625)"/>
       <path id="DejaVuSans-66" d="M 2375 4863 
L 2375 4384 
L 1825 4384 
Q 1516 4384 1395 4259 
Q 1275 4134 1275 3809 
L 1275 3500 
L 2222 3500 
L 2222 3053 
L 1275 3053 
L 1275 0 
L 697 0 
L 697 3053 
L 147 3053 
L 147 3500 
L 697 3500 
L 697 3744 
Q 697 4328 969 4595 
Q 1241 4863 1831 4863 
L 2375 4863 
z
" transform="scale(0.015625)"/>
      </defs>
      <use xlink:href="#DejaVuSans-4e"/>
      <use xlink:href="#DejaVuSans-75" transform="translate(74.804688 0)"/>
      <use xlink:href="#DejaVuSans-6d" transform="translate(138.183594 0)"/>
      <use xlink:href="#DejaVuSans-62" transform="translate(235.595703 0)"/>
      <use xlink:href="#DejaVuSans-65" transform="translate(299.072266 0)"/>
      <use xlink:href="#DejaVuSans-72" transform="translate(360.595703 0)"/>
      <use xlink:href="#DejaVuSans-20" transform="translate(401.708984 0)"/>
      <use xlink:href="#DejaVuSans-6f" transform="translate(433.496094 0)"/>
      <use xlink:href="#DejaVuSans-66" transform="translate(494.677734 0)"/>
      <use xlink:href="#DejaVuSans-20" transform="translate(529.882812 0)"/>
      <use xlink:href="#DejaVuSans-44" transform="translate(561.669922 0)"/>
      <use xlink:href="#DejaVuSans-65" transform="translate(638.671875 0)"/>
      <use xlink:href="#DejaVuSans-61" transform="translate(700.195312 0)"/>
      <use xlink:href="#DejaVuSans-6c" transform="translate(761.474609 0)"/>
      <use xlink:href="#DejaVuSans-73" transform="translate(789.257812 0)"/>
     </g>
    </g>
   </g>
  </g>
  <g id="axes_2">
   <g id="patch_9">
    <path d="M 90.125994 459.218125 
L 102.138602 459.218125 
L 102.138602 454.861107 
L 90.125994 454.861107 
z
" clip-path="url(#p968f1543db)" style="fill: #ff7f0e; opacity: 0.3"/>
   </g>
   <g id="patch_10">
    <path d="M 120.157514 459.218125 
L 132.170122 459.218125 
L 132.170122 450.504089 
L 120.157514 450.504089 
z
" clip-path="url(#p968f1543db)" style="fill: #ff7f0e; opacity: 0.3"/>
   </g>
   <g id="patch_11">
    <path d="M 150.189033 459.218125 
L 162.201641 459.218125 
L 162.201641 441.790052 
L 150.189033 441.790052 
z
" clip-path="url(#p968f1543db)" style="fill: #ff7f0e; opacity: 0.3"/>
   </g>
   <g id="patch_12">
    <path d="M 180.220553 459.218125 
L 192.233161 459.218125 
L 192.233161 404.755398 
L 180.220553 404.755398 
z
" clip-path="url(#p968f1543db)" style="fill: #ff7f0e; opacity: 0.3"/>
   </g>
   <g id="patch_13">
    <path d="M 210.252073 459.218125 
L 222.26468 459.218125 
L 222.26468 315.436524 
L 210.252073 315.436524 
z
" clip-path="url(#p968f1543db)" style="fill: #ff7f0e; opacity: 0.3"/>
   </g>
   <g id="patch_14">
    <path d="M 240.283592 459.218125 
L 252.2962 459.218125 
L 252.2962 193.440015 
L 240.283592 193.440015 
z
" clip-path="url(#p968f1543db)" style="fill: #ff7f0e; opacity: 0.3"/>
   </g>
   <g id="patch_15">
    <path d="M 270.315112 459.218125 
L 282.32772 459.218125 
L 282.32772 300.186961 
L 270.315112 300.186961 
z
" clip-path="url(#p968f1543db)" style="fill: #ff7f0e; opacity: 0.3"/>
   </g>
   <g id="patch_16">
    <path d="M 300.346631 459.218125 
L 312.359239 459.218125 
L 312.359239 330.686088 
L 300.346631 330.686088 
z
" clip-path="url(#p968f1543db)" style="fill: #ff7f0e; opacity: 0.3"/>
   </g>
   <g id="patch_17">
    <path d="M 330.378151 459.218125 
L 342.390759 459.218125 
L 342.390759 339.400125 
L 330.378151 339.400125 
z
" clip-path="url(#p968f1543db)" style="fill: #ff7f0e; opacity: 0.3"/>
   </g>
   <g id="patch_18">
    <path d="M 360.40967 459.218125 
L 372.422278 459.218125 
L 372.422278 321.972052 
L 360.40967 321.972052 
z
" clip-path="url(#p968f1543db)" style="fill: #ff7f0e; opacity: 0.3"/>
   </g>
   <g id="patch_19">
    <path d="M 390.44119 459.218125 
L 402.453798 459.218125 
L 402.453798 313.258015 
L 390.44119 313.258015 
z
" clip-path="url(#p968f1543db)" style="fill: #ff7f0e; opacity: 0.3"/>
   </g>
   <g id="patch_20">
    <path d="M 420.47271 459.218125 
L 432.485317 459.218125 
L 432.485317 256.616779 
L 420.47271 256.616779 
z
" clip-path="url(#p968f1543db)" style="fill: #ff7f0e; opacity: 0.3"/>
   </g>
   <g id="patch_21">
    <path d="M 450.504229 459.218125 
L 462.516837 459.218125 
L 462.516837 276.223361 
L 450.504229 276.223361 
z
" clip-path="url(#p968f1543db)" style="fill: #ff7f0e; opacity: 0.3"/>
   </g>
   <g id="patch_22">
    <path d="M 480.535749 459.218125 
L 492.548357 459.218125 
L 492.548357 295.829943 
L 480.535749 295.829943 
z
" clip-path="url(#p968f1543db)" style="fill: #ff7f0e; opacity: 0.3"/>
   </g>
   <g id="patch_23">
    <path d="M 510.567268 459.218125 
L 522.579876 459.218125 
L 522.579876 332.864597 
L 510.567268 332.864597 
z
" clip-path="url(#p968f1543db)" style="fill: #ff7f0e; opacity: 0.3"/>
   </g>
   <g id="patch_24">
    <path d="M 540.598788 459.218125 
L 552.611396 459.218125 
L 552.611396 291.472924 
L 540.598788 291.472924 
z
" clip-path="url(#p968f1543db)" style="fill: #ff7f0e; opacity: 0.3"/>
   </g>
   <g id="patch_25">
    <path d="M 570.630308 459.218125 
L 582.642915 459.218125 
L 582.642915 256.616779 
L 570.630308 256.616779 
z
" clip-path="url(#p968f1543db)" style="fill: #ff7f0e; opacity: 0.3"/>
   </g>
   <g id="patch_26">
    <path d="M 600.661827 459.218125 
L 612.674435 459.218125 
L 612.674435 278.40187 
L 600.661827 278.40187 
z
" clip-path="url(#p968f1543db)" style="fill: #ff7f0e; opacity: 0.3"/>
   </g>
   <g id="patch_27">
    <path d="M 630.693347 459.218125 
L 642.705955 459.218125 
L 642.705955 213.046597 
L 630.693347 213.046597 
z
" clip-path="url(#p968f1543db)" style="fill: #ff7f0e; opacity: 0.3"/>
   </g>
   <g id="patch_28">
    <path d="M 660.724866 459.218125 
L 672.737474 459.218125 
L 672.737474 202.154051 
L 660.724866 202.154051 
z
" clip-path="url(#p968f1543db)" style="fill: #ff7f0e; opacity: 0.3"/>
   </g>
   <g id="patch_29">
    <path d="M 690.756386 459.218125 
L 702.768994 459.218125 
L 702.768994 167.297906 
L 690.756386 167.297906 
z
" clip-path="url(#p968f1543db)" style="fill: #ff7f0e; opacity: 0.3"/>
   </g>
   <g id="patch_30">
    <path d="M 720.787905 459.218125 
L 732.800513 459.218125 
L 732.800513 160.762378 
L 720.787905 160.762378 
z
" clip-path="url(#p968f1543db)" style="fill: #ff7f0e; opacity: 0.3"/>
   </g>
   <g id="patch_31">
    <path d="M 750.819425 459.218125 
L 762.832033 459.218125 
L 762.832033 180.36896 
L 750.819425 180.36896 
z
" clip-path="url(#p968f1543db)" style="fill: #ff7f0e; opacity: 0.3"/>
   </g>
   <g id="patch_32">
    <path d="M 780.850945 459.218125 
L 792.863552 459.218125 
L 792.863552 208.689579 
L 780.850945 208.689579 
z
" clip-path="url(#p968f1543db)" style="fill: #ff7f0e; opacity: 0.3"/>
   </g>
   <g id="patch_33">
    <path d="M 810.882464 459.218125 
L 822.895072 459.218125 
L 822.895072 43.122887 
L 810.882464 43.122887 
z
" clip-path="url(#p968f1543db)" style="fill: #ff7f0e; opacity: 0.3"/>
   </g>
   <g id="patch_34">
    <path d="M 840.913984 459.218125 
L 852.926592 459.218125 
L 852.926592 77.979033 
L 840.913984 77.979033 
z
" clip-path="url(#p968f1543db)" style="fill: #ff7f0e; opacity: 0.3"/>
   </g>
   <g id="patch_35">
    <path d="M 870.945503 459.218125 
L 882.958111 459.218125 
L 882.958111 106.299651 
L 870.945503 106.299651 
z
" clip-path="url(#p968f1543db)" style="fill: #ff7f0e; opacity: 0.3"/>
   </g>
   <g id="patch_36">
    <path d="M 900.977023 459.218125 
L 912.989631 459.218125 
L 912.989631 206.511069 
L 900.977023 206.511069 
z
" clip-path="url(#p968f1543db)" style="fill: #ff7f0e; opacity: 0.3"/>
   </g>
   <g id="matplotlib.axis_3">
    <g id="ytick_6">
     <g id="line2d_14">
      <defs>
       <path id="ma13c26d14b" d="M 0 0 
L 3.5 0 
" style="stroke: #000000; stroke-width: 0.8"/>
      </defs>
      <g>
       <use xlink:href="#ma13c26d14b" x="954.132812" y="459.218125" style="stroke: #000000; stroke-width: 0.8"/>
      </g>
     </g>
     <g id="text_16">
      <!-- 0 -->
      <g style="fill: #ff7f0e" transform="translate(961.132812 463.017344) scale(0.1 -0.1)">
       <use xlink:href="#DejaVuSans-30"/>
      </g>
     </g>
    </g>
    <g id="ytick_7">
     <g id="line2d_15">
      <g>
       <use xlink:href="#ma13c26d14b" x="954.132812" y="404.755398" style="stroke: #000000; stroke-width: 0.8"/>
      </g>
     </g>
     <g id="text_17">
      <!-- 25 -->
      <g style="fill: #ff7f0e" transform="translate(961.132812 408.554616) scale(0.1 -0.1)">
       <use xlink:href="#DejaVuSans-32"/>
       <use xlink:href="#DejaVuSans-35" transform="translate(63.623047 0)"/>
      </g>
     </g>
    </g>
    <g id="ytick_8">
     <g id="line2d_16">
      <g>
       <use xlink:href="#ma13c26d14b" x="954.132812" y="350.29267" style="stroke: #000000; stroke-width: 0.8"/>
      </g>
     </g>
     <g id="text_18">
      <!-- 50 -->
      <g style="fill: #ff7f0e" transform="translate(961.132812 354.091889) scale(0.1 -0.1)">
       <use xlink:href="#DejaVuSans-35"/>
       <use xlink:href="#DejaVuSans-30" transform="translate(63.623047 0)"/>
      </g>
     </g>
    </g>
    <g id="ytick_9">
     <g id="line2d_17">
      <g>
       <use xlink:href="#ma13c26d14b" x="954.132812" y="295.829943" style="stroke: #000000; stroke-width: 0.8"/>
      </g>
     </g>
     <g id="text_19">
      <!-- 75 -->
      <g style="fill: #ff7f0e" transform="translate(961.132812 299.629161) scale(0.1 -0.1)">
       <defs>
        <path id="DejaVuSans-37" d="M 525 4666 
L 3525 4666 
L 3525 4397 
L 1831 0 
L 1172 0 
L 2766 4134 
L 525 4134 
L 525 4666 
z
" transform="scale(0.015625)"/>
       </defs>
       <use xlink:href="#DejaVuSans-37"/>
       <use xlink:href="#DejaVuSans-35" transform="translate(63.623047 0)"/>
      </g>
     </g>
    </g>
    <g id="ytick_10">
     <g id="line2d_18">
      <g>
       <use xlink:href="#ma13c26d14b" x="954.132812" y="241.367215" style="stroke: #000000; stroke-width: 0.8"/>
      </g>
     </g>
     <g id="text_20">
      <!-- 100 -->
      <g style="fill: #ff7f0e" transform="translate(961.132812 245.166434) scale(0.1 -0.1)">
       <use xlink:href="#DejaVuSans-31"/>
       <use xlink:href="#DejaVuSans-30" transform="translate(63.623047 0)"/>
       <use xlink:href="#DejaVuSans-30" transform="translate(127.246094 0)"/>
      </g>
     </g>
    </g>
    <g id="ytick_11">
     <g id="line2d_19">
      <g>
       <use xlink:href="#ma13c26d14b" x="954.132812" y="186.904488" style="stroke: #000000; stroke-width: 0.8"/>
      </g>
     </g>
     <g id="text_21">
      <!-- 125 -->
      <g style="fill: #ff7f0e" transform="translate(961.132812 190.703706) scale(0.1 -0.1)">
       <use xlink:href="#DejaVuSans-31"/>
       <use xlink:href="#DejaVuSans-32" transform="translate(63.623047 0)"/>
       <use xlink:href="#DejaVuSans-35" transform="translate(127.246094 0)"/>
      </g>
     </g>
    </g>
    <g id="ytick_12">
     <g id="line2d_20">
      <g>
       <use xlink:href="#ma13c26d14b" x="954.132812" y="132.44176" style="stroke: #000000; stroke-width: 0.8"/>
      </g>
     </g>
     <g id="text_22">
      <!-- 150 -->
      <g style="fill: #ff7f0e" transform="translate(961.132812 136.240979) scale(0.1 -0.1)">
       <use xlink:href="#DejaVuSans-31"/>
       <use xlink:href="#DejaVuSans-35" transform="translate(63.623047 0)"/>
       <use xlink:href="#DejaVuSans-30" transform="translate(127.246094 0)"/>
      </g>
     </g>
    </g>
    <g id="ytick_13">
     <g id="line2d_21">
      <g>
       <use xlink:href="#ma13c26d14b" x="954.132812" y="77.979033" style="stroke: #000000; stroke-width: 0.8"/>
      </g>
     </g>
     <g id="text_23">
      <!-- 175 -->
      <g style="fill: #ff7f0e" transform="translate(961.132812 81.778251) scale(0.1 -0.1)">
       <use xlink:href="#DejaVuSans-31"/>
       <use xlink:href="#DejaVuSans-37" transform="translate(63.623047 0)"/>
       <use xlink:href="#DejaVuSans-35" transform="translate(127.246094 0)"/>
      </g>
     </g>
    </g>
    <g id="ytick_14">
     <g id="line2d_22">
      <g>
       <use xlink:href="#ma13c26d14b" x="954.132812" y="23.516305" style="stroke: #000000; stroke-width: 0.8"/>
      </g>
     </g>
     <g id="text_24">
      <!-- 200 -->
      <g style="fill: #ff7f0e" transform="translate(961.132812 27.315524) scale(0.1 -0.1)">
       <use xlink:href="#DejaVuSans-32"/>
       <use xlink:href="#DejaVuSans-30" transform="translate(63.623047 0)"/>
       <use xlink:href="#DejaVuSans-30" transform="translate(127.246094 0)"/>
      </g>
     </g>
    </g>
    <g id="text_25">
     <!-- Number of Deals -->
     <g style="fill: #ff7f0e" transform="translate(991.81875 282.836094) rotate(-90) scale(0.1 -0.1)">
      <use xlink:href="#DejaVuSans-4e"/>
      <use xlink:href="#DejaVuSans-75" transform="translate(74.804688 0)"/>
      <use xlink:href="#DejaVuSans-6d" transform="translate(138.183594 0)"/>
      <use xlink:href="#DejaVuSans-62" transform="translate(235.595703 0)"/>
      <use xlink:href="#DejaVuSans-65" transform="translate(299.072266 0)"/>
      <use xlink:href="#DejaVuSans-72" transform="translate(360.595703 0)"/>
      <use xlink:href="#DejaVuSans-20" transform="translate(401.708984 0)"/>
      <use xlink:href="#DejaVuSans-6f" transform="translate(433.496094 0)"/>
      <use xlink:href="#DejaVuSans-66" transform="translate(494.677734 0)"/>
      <use xlink:href="#DejaVuSans-20" transform="translate(529.882812 0)"/>
      <use xlink:href="#DejaVuSans-44" transform="translate(561.669922 0)"/>
      <use xlink:href="#DejaVuSans-65" transform="translate(638.671875 0)"/>
      <use xlink:href="#DejaVuSans-61" transform="translate(700.195312 0)"/>
      <use xlink:href="#DejaVuSans-6c" transform="translate(761.474609 0)"/>
      <use xlink:href="#DejaVuSans-73" transform="translate(789.257812 0)"/>
     </g>
    </g>
   </g>
   <g id="patch_37">
    <path d="M 48.982813 459.218125 
L 48.982813 22.318125 
" style="fill: none; stroke: #000000; stroke-width: 0.8; stroke-linejoin: miter; stroke-linecap: square"/>
   </g>
   <g id="patch_38">
    <path d="M 954.132812 459.218125 
L 954.132812 22.318125 
" style="fill: none; stroke: #000000; stroke-width: 0.8; stroke-linejoin: miter; stroke-linecap: square"/>
   </g>
   <g id="patch_39">
    <path d="M 48.982812 459.218125 
L 954.132812 459.218125 
" style="fill: none; stroke: #000000; stroke-width: 0.8; stroke-linejoin: miter; stroke-linecap: square"/>
   </g>
   <g id="patch_40">
    <path d="M 48.982812 22.318125 
L 954.132812 22.318125 
" style="fill: none; stroke: #000000; stroke-width: 0.8; stroke-linejoin: miter; stroke-linecap: square"/>
   </g>
   <g id="text_26">
    <!-- 2 -->
    <g style="fill: #ff7f0e" transform="translate(92.951048 452.781419) scale(0.1 -0.1)">
     <use xlink:href="#DejaVuSans-32"/>
    </g>
   </g>
   <g id="text_27">
    <!-- 4 -->
    <g style="fill: #ff7f0e" transform="translate(122.982568 448.424401) scale(0.1 -0.1)">
     <defs>
      <path id="DejaVuSans-34" d="M 2419 4116 
L 825 1625 
L 2419 1625 
L 2419 4116 
z
M 2253 4666 
L 3047 4666 
L 3047 1625 
L 3713 1625 
L 3713 1100 
L 3047 1100 
L 3047 0 
L 2419 0 
L 2419 1100 
L 313 1100 
L 313 1709 
L 2253 4666 
z
" transform="scale(0.015625)"/>
     </defs>
     <use xlink:href="#DejaVuSans-34"/>
    </g>
   </g>
   <g id="text_28">
    <!-- 8 -->
    <g style="fill: #ff7f0e" transform="translate(153.014087 439.710365) scale(0.1 -0.1)">
     <defs>
      <path id="DejaVuSans-38" d="M 2034 2216 
Q 1584 2216 1326 1975 
Q 1069 1734 1069 1313 
Q 1069 891 1326 650 
Q 1584 409 2034 409 
Q 2484 409 2743 651 
Q 3003 894 3003 1313 
Q 3003 1734 2745 1975 
Q 2488 2216 2034 2216 
z
M 1403 2484 
Q 997 2584 770 2862 
Q 544 3141 544 3541 
Q 544 4100 942 4425 
Q 1341 4750 2034 4750 
Q 2731 4750 3128 4425 
Q 3525 4100 3525 3541 
Q 3525 3141 3298 2862 
Q 3072 2584 2669 2484 
Q 3125 2378 3379 2068 
Q 3634 1759 3634 1313 
Q 3634 634 3220 271 
Q 2806 -91 2034 -91 
Q 1263 -91 848 271 
Q 434 634 434 1313 
Q 434 1759 690 2068 
Q 947 2378 1403 2484 
z
M 1172 3481 
Q 1172 3119 1398 2916 
Q 1625 2713 2034 2713 
Q 2441 2713 2670 2916 
Q 2900 3119 2900 3481 
Q 2900 3844 2670 4047 
Q 2441 4250 2034 4250 
Q 1625 4250 1398 4047 
Q 1172 3844 1172 3481 
z
" transform="scale(0.015625)"/>
     </defs>
     <use xlink:href="#DejaVuSans-38"/>
    </g>
   </g>
   <g id="text_29">
    <!-- 25 -->
    <g style="fill: #ff7f0e" transform="translate(179.864357 402.67571) scale(0.1 -0.1)">
     <use xlink:href="#DejaVuSans-32"/>
     <use xlink:href="#DejaVuSans-35" transform="translate(63.623047 0)"/>
    </g>
   </g>
   <g id="text_30">
    <!-- 66 -->
    <g style="fill: #ff7f0e" transform="translate(209.895877 313.356837) scale(0.1 -0.1)">
     <defs>
      <path id="DejaVuSans-36" d="M 2113 2584 
Q 1688 2584 1439 2293 
Q 1191 2003 1191 1497 
Q 1191 994 1439 701 
Q 1688 409 2113 409 
Q 2538 409 2786 701 
Q 3034 994 3034 1497 
Q 3034 2003 2786 2293 
Q 2538 2584 2113 2584 
z
M 3366 4563 
L 3366 3988 
Q 3128 4100 2886 4159 
Q 2644 4219 2406 4219 
Q 1781 4219 1451 3797 
Q 1122 3375 1075 2522 
Q 1259 2794 1537 2939 
Q 1816 3084 2150 3084 
Q 2853 3084 3261 2657 
Q 3669 2231 3669 1497 
Q 3669 778 3244 343 
Q 2819 -91 2113 -91 
Q 1303 -91 875 529 
Q 447 1150 447 2328 
Q 447 3434 972 4092 
Q 1497 4750 2381 4750 
Q 2619 4750 2861 4703 
Q 3103 4656 3366 4563 
z
" transform="scale(0.015625)"/>
     </defs>
     <use xlink:href="#DejaVuSans-36"/>
     <use xlink:href="#DejaVuSans-36" transform="translate(63.623047 0)"/>
    </g>
   </g>
   <g id="text_31">
    <!-- 122 -->
    <g style="fill: #ff7f0e" transform="translate(236.746146 191.360327) scale(0.1 -0.1)">
     <use xlink:href="#DejaVuSans-31"/>
     <use xlink:href="#DejaVuSans-32" transform="translate(63.623047 0)"/>
     <use xlink:href="#DejaVuSans-32" transform="translate(127.246094 0)"/>
    </g>
   </g>
   <g id="text_32">
    <!-- 73 -->
    <g style="fill: #ff7f0e" transform="translate(269.958916 298.107273) scale(0.1 -0.1)">
     <defs>
      <path id="DejaVuSans-33" d="M 2597 2516 
Q 3050 2419 3304 2112 
Q 3559 1806 3559 1356 
Q 3559 666 3084 287 
Q 2609 -91 1734 -91 
Q 1441 -91 1130 -33 
Q 819 25 488 141 
L 488 750 
Q 750 597 1062 519 
Q 1375 441 1716 441 
Q 2309 441 2620 675 
Q 2931 909 2931 1356 
Q 2931 1769 2642 2001 
Q 2353 2234 1838 2234 
L 1294 2234 
L 1294 2753 
L 1863 2753 
Q 2328 2753 2575 2939 
Q 2822 3125 2822 3475 
Q 2822 3834 2567 4026 
Q 2313 4219 1838 4219 
Q 1578 4219 1281 4162 
Q 984 4106 628 3988 
L 628 4550 
Q 988 4650 1302 4700 
Q 1616 4750 1894 4750 
Q 2613 4750 3031 4423 
Q 3450 4097 3450 3541 
Q 3450 3153 3228 2886 
Q 3006 2619 2597 2516 
z
" transform="scale(0.015625)"/>
     </defs>
     <use xlink:href="#DejaVuSans-37"/>
     <use xlink:href="#DejaVuSans-33" transform="translate(63.623047 0)"/>
    </g>
   </g>
   <g id="text_33">
    <!-- 59 -->
    <g style="fill: #ff7f0e" transform="translate(299.990435 328.606401) scale(0.1 -0.1)">
     <use xlink:href="#DejaVuSans-35"/>
     <use xlink:href="#DejaVuSans-39" transform="translate(63.623047 0)"/>
    </g>
   </g>
   <g id="text_34">
    <!-- 55 -->
    <g style="fill: #ff7f0e" transform="translate(330.021955 337.320437) scale(0.1 -0.1)">
     <use xlink:href="#DejaVuSans-35"/>
     <use xlink:href="#DejaVuSans-35" transform="translate(63.623047 0)"/>
    </g>
   </g>
   <g id="text_35">
    <!-- 63 -->
    <g style="fill: #ff7f0e" transform="translate(360.053474 319.892364) scale(0.1 -0.1)">
     <use xlink:href="#DejaVuSans-36"/>
     <use xlink:href="#DejaVuSans-33" transform="translate(63.623047 0)"/>
    </g>
   </g>
   <g id="text_36">
    <!-- 67 -->
    <g style="fill: #ff7f0e" transform="translate(390.084994 311.178328) scale(0.1 -0.1)">
     <use xlink:href="#DejaVuSans-36"/>
     <use xlink:href="#DejaVuSans-37" transform="translate(63.623047 0)"/>
    </g>
   </g>
   <g id="text_37">
    <!-- 93 -->
    <g style="fill: #ff7f0e" transform="translate(420.116514 254.537091) scale(0.1 -0.1)">
     <use xlink:href="#DejaVuSans-39"/>
     <use xlink:href="#DejaVuSans-33" transform="translate(63.623047 0)"/>
    </g>
   </g>
   <g id="text_38">
    <!-- 84 -->
    <g style="fill: #ff7f0e" transform="translate(450.148033 274.143673) scale(0.1 -0.1)">
     <use xlink:href="#DejaVuSans-38"/>
     <use xlink:href="#DejaVuSans-34" transform="translate(63.623047 0)"/>
    </g>
   </g>
   <g id="text_39">
    <!-- 75 -->
    <g style="fill: #ff7f0e" transform="translate(480.179553 293.750255) scale(0.1 -0.1)">
     <use xlink:href="#DejaVuSans-37"/>
     <use xlink:href="#DejaVuSans-35" transform="translate(63.623047 0)"/>
    </g>
   </g>
   <g id="text_40">
    <!-- 58 -->
    <g style="fill: #ff7f0e" transform="translate(510.211072 330.78491) scale(0.1 -0.1)">
     <use xlink:href="#DejaVuSans-35"/>
     <use xlink:href="#DejaVuSans-38" transform="translate(63.623047 0)"/>
    </g>
   </g>
   <g id="text_41">
    <!-- 77 -->
    <g style="fill: #ff7f0e" transform="translate(540.242592 289.393237) scale(0.1 -0.1)">
     <use xlink:href="#DejaVuSans-37"/>
     <use xlink:href="#DejaVuSans-37" transform="translate(63.623047 0)"/>
    </g>
   </g>
   <g id="text_42">
    <!-- 93 -->
    <g style="fill: #ff7f0e" transform="translate(570.274111 254.537091) scale(0.1 -0.1)">
     <use xlink:href="#DejaVuSans-39"/>
     <use xlink:href="#DejaVuSans-33" transform="translate(63.623047 0)"/>
    </g>
   </g>
   <g id="text_43">
    <!-- 83 -->
    <g style="fill: #ff7f0e" transform="translate(600.305631 276.322182) scale(0.1 -0.1)">
     <use xlink:href="#DejaVuSans-38"/>
     <use xlink:href="#DejaVuSans-33" transform="translate(63.623047 0)"/>
    </g>
   </g>
   <g id="text_44">
    <!-- 113 -->
    <g style="fill: #ff7f0e" transform="translate(627.155901 210.966909) scale(0.1 -0.1)">
     <use xlink:href="#DejaVuSans-31"/>
     <use xlink:href="#DejaVuSans-31" transform="translate(63.623047 0)"/>
     <use xlink:href="#DejaVuSans-33" transform="translate(127.246094 0)"/>
    </g>
   </g>
   <g id="text_45">
    <!-- 118 -->
    <g style="fill: #ff7f0e" transform="translate(657.18742 200.074364) scale(0.1 -0.1)">
     <use xlink:href="#DejaVuSans-31"/>
     <use xlink:href="#DejaVuSans-31" transform="translate(63.623047 0)"/>
     <use xlink:href="#DejaVuSans-38" transform="translate(127.246094 0)"/>
    </g>
   </g>
   <g id="text_46">
    <!-- 134 -->
    <g style="fill: #ff7f0e" transform="translate(687.21894 165.218218) scale(0.1 -0.1)">
     <use xlink:href="#DejaVuSans-31"/>
     <use xlink:href="#DejaVuSans-33" transform="translate(63.623047 0)"/>
     <use xlink:href="#DejaVuSans-34" transform="translate(127.246094 0)"/>
    </g>
   </g>
   <g id="text_47">
    <!-- 137 -->
    <g style="fill: #ff7f0e" transform="translate(717.250459 158.682691) scale(0.1 -0.1)">
     <use xlink:href="#DejaVuSans-31"/>
     <use xlink:href="#DejaVuSans-33" transform="translate(63.623047 0)"/>
     <use xlink:href="#DejaVuSans-37" transform="translate(127.246094 0)"/>
    </g>
   </g>
   <g id="text_48">
    <!-- 128 -->
    <g style="fill: #ff7f0e" transform="translate(747.281979 178.289273) scale(0.1 -0.1)">
     <use xlink:href="#DejaVuSans-31"/>
     <use xlink:href="#DejaVuSans-32" transform="translate(63.623047 0)"/>
     <use xlink:href="#DejaVuSans-38" transform="translate(127.246094 0)"/>
    </g>
   </g>
   <g id="text_49">
    <!-- 115 -->
    <g style="fill: #ff7f0e" transform="translate(777.313498 206.609891) scale(0.1 -0.1)">
     <use xlink:href="#DejaVuSans-31"/>
     <use xlink:href="#DejaVuSans-31" transform="translate(63.623047 0)"/>
     <use xlink:href="#DejaVuSans-35" transform="translate(127.246094 0)"/>
    </g>
   </g>
   <g id="text_50">
    <!-- 191 -->
    <g style="fill: #ff7f0e" transform="translate(807.345018 41.043199) scale(0.1 -0.1)">
     <use xlink:href="#DejaVuSans-31"/>
     <use xlink:href="#DejaVuSans-39" transform="translate(63.623047 0)"/>
     <use xlink:href="#DejaVuSans-31" transform="translate(127.246094 0)"/>
    </g>
   </g>
   <g id="text_51">
    <!-- 175 -->
    <g style="fill: #ff7f0e" transform="translate(837.376538 75.899345) scale(0.1 -0.1)">
     <use xlink:href="#DejaVuSans-31"/>
     <use xlink:href="#DejaVuSans-37" transform="translate(63.623047 0)"/>
     <use xlink:href="#DejaVuSans-35" transform="translate(127.246094 0)"/>
    </g>
   </g>
   <g id="text_52">
    <!-- 162 -->
    <g style="fill: #ff7f0e" transform="translate(867.408057 104.219963) scale(0.1 -0.1)">
     <use xlink:href="#DejaVuSans-31"/>
     <use xlink:href="#DejaVuSans-36" transform="translate(63.623047 0)"/>
     <use xlink:href="#DejaVuSans-32" transform="translate(127.246094 0)"/>
    </g>
   </g>
   <g id="text_53">
    <!-- 116 -->
    <g style="fill: #ff7f0e" transform="translate(897.439577 204.431382) scale(0.1 -0.1)">
     <use xlink:href="#DejaVuSans-31"/>
     <use xlink:href="#DejaVuSans-31" transform="translate(63.623047 0)"/>
     <use xlink:href="#DejaVuSans-36" transform="translate(127.246094 0)"/>
    </g>
   </g>
   <g id="text_54">
    <!-- Mean Deal Size and Number of Deals by Year -->
    <g transform="translate(365.960625 16.318125) scale(0.12 -0.12)">
     <defs>
      <path id="DejaVuSans-64" d="M 2906 2969 
L 2906 4863 
L 3481 4863 
L 3481 0 
L 2906 0 
L 2906 525 
Q 2725 213 2448 61 
Q 2172 -91 1784 -91 
Q 1150 -91 751 415 
Q 353 922 353 1747 
Q 353 2572 751 3078 
Q 1150 3584 1784 3584 
Q 2172 3584 2448 3432 
Q 2725 3281 2906 2969 
z
M 947 1747 
Q 947 1113 1208 752 
Q 1469 391 1925 391 
Q 2381 391 2643 752 
Q 2906 1113 2906 1747 
Q 2906 2381 2643 2742 
Q 2381 3103 1925 3103 
Q 1469 3103 1208 2742 
Q 947 2381 947 1747 
z
" transform="scale(0.015625)"/>
      <path id="DejaVuSans-79" d="M 2059 -325 
Q 1816 -950 1584 -1140 
Q 1353 -1331 966 -1331 
L 506 -1331 
L 506 -850 
L 844 -850 
Q 1081 -850 1212 -737 
Q 1344 -625 1503 -206 
L 1606 56 
L 191 3500 
L 800 3500 
L 1894 763 
L 2988 3500 
L 3597 3500 
L 2059 -325 
z
" transform="scale(0.015625)"/>
     </defs>
     <use xlink:href="#DejaVuSans-4d"/>
     <use xlink:href="#DejaVuSans-65" transform="translate(86.279297 0)"/>
     <use xlink:href="#DejaVuSans-61" transform="translate(147.802734 0)"/>
     <use xlink:href="#DejaVuSans-6e" transform="translate(209.082031 0)"/>
     <use xlink:href="#DejaVuSans-20" transform="translate(272.460938 0)"/>
     <use xlink:href="#DejaVuSans-44" transform="translate(304.248047 0)"/>
     <use xlink:href="#DejaVuSans-65" transform="translate(381.25 0)"/>
     <use xlink:href="#DejaVuSans-61" transform="translate(442.773438 0)"/>
     <use xlink:href="#DejaVuSans-6c" transform="translate(504.052734 0)"/>
     <use xlink:href="#DejaVuSans-20" transform="translate(531.835938 0)"/>
     <use xlink:href="#DejaVuSans-53" transform="translate(563.623047 0)"/>
     <use xlink:href="#DejaVuSans-69" transform="translate(627.099609 0)"/>
     <use xlink:href="#DejaVuSans-7a" transform="translate(654.882812 0)"/>
     <use xlink:href="#DejaVuSans-65" transform="translate(707.373047 0)"/>
     <use xlink:href="#DejaVuSans-20" transform="translate(768.896484 0)"/>
     <use xlink:href="#DejaVuSans-61" transform="translate(800.683594 0)"/>
     <use xlink:href="#DejaVuSans-6e" transform="translate(861.962891 0)"/>
     <use xlink:href="#DejaVuSans-64" transform="translate(925.341797 0)"/>
     <use xlink:href="#DejaVuSans-20" transform="translate(988.818359 0)"/>
     <use xlink:href="#DejaVuSans-4e" transform="translate(1020.605469 0)"/>
     <use xlink:href="#DejaVuSans-75" transform="translate(1095.410156 0)"/>
     <use xlink:href="#DejaVuSans-6d" transform="translate(1158.789062 0)"/>
     <use xlink:href="#DejaVuSans-62" transform="translate(1256.201172 0)"/>
     <use xlink:href="#DejaVuSans-65" transform="translate(1319.677734 0)"/>
     <use xlink:href="#DejaVuSans-72" transform="translate(1381.201172 0)"/>
     <use xlink:href="#DejaVuSans-20" transform="translate(1422.314453 0)"/>
     <use xlink:href="#DejaVuSans-6f" transform="translate(1454.101562 0)"/>
     <use xlink:href="#DejaVuSans-66" transform="translate(1515.283203 0)"/>
     <use xlink:href="#DejaVuSans-20" transform="translate(1550.488281 0)"/>
     <use xlink:href="#DejaVuSans-44" transform="translate(1582.275391 0)"/>
     <use xlink:href="#DejaVuSans-65" transform="translate(1659.277344 0)"/>
     <use xlink:href="#DejaVuSans-61" transform="translate(1720.800781 0)"/>
     <use xlink:href="#DejaVuSans-6c" transform="translate(1782.080078 0)"/>
     <use xlink:href="#DejaVuSans-73" transform="translate(1809.863281 0)"/>
     <use xlink:href="#DejaVuSans-20" transform="translate(1861.962891 0)"/>
     <use xlink:href="#DejaVuSans-62" transform="translate(1893.75 0)"/>
     <use xlink:href="#DejaVuSans-79" transform="translate(1957.226562 0)"/>
     <use xlink:href="#DejaVuSans-20" transform="translate(2016.40625 0)"/>
     <use xlink:href="#DejaVuSans-59" transform="translate(2048.193359 0)"/>
     <use xlink:href="#DejaVuSans-65" transform="translate(2096.027344 0)"/>
     <use xlink:href="#DejaVuSans-61" transform="translate(2157.550781 0)"/>
     <use xlink:href="#DejaVuSans-72" transform="translate(2218.830078 0)"/>
    </g>
   </g>
  </g>
 </g>
 <defs>
  <clipPath id="p968f1543db">
   <rect x="48.982813" y="22.318125" width="905.15" height="436.9"/>
  </clipPath>
 </defs>
</svg>
