<?xml version="1.0" encoding="utf-8" standalone="no"?>
<!DOCTYPE svg PUBLIC "-//W3C//DTD SVG 1.1//EN"
  "http://www.w3.org/Graphics/SVG/1.1/DTD/svg11.dtd">
<svg xmlns:xlink="http://www.w3.org/1999/xlink" width="856.940625pt" height="424.774375pt" viewBox="0 0 856.940625 424.774375" xmlns="http://www.w3.org/2000/svg" version="1.1">
 <metadata>
  <rdf:RDF xmlns:dc="http://purl.org/dc/elements/1.1/" xmlns:cc="http://creativecommons.org/ns#" xmlns:rdf="http://www.w3.org/1999/02/22-rdf-syntax-ns#">
   <cc:Work>
    <dc:type rdf:resource="http://purl.org/dc/dcmitype/StillImage"/>
    <dc:date>2025-09-20T08:35:38.724201</dc:date>
    <dc:format>image/svg+xml</dc:format>
    <dc:creator>
     <cc:Agent>
      <dc:title>Matplotlib v3.10.0, https://matplotlib.org/</dc:title>
     </cc:Agent>
    </dc:creator>
   </cc:Work>
  </rdf:RDF>
 </metadata>
 <defs>
  <style type="text/css">*{stroke-linejoin: round; stroke-linecap: butt}</style>
 </defs>
 <g id="figure_1">
  <g id="patch_1">
   <path d="M -0 424.774375 
L 856.940625 424.774375 
L 856.940625 0 
L -0 0 
z
" style="fill: #ffffff"/>
  </g>
  <g id="axes_1">
   <g id="patch_2">
    <path d="M 46.965625 387.218125 
L 849.740625 387.218125 
L 849.740625 22.318125 
L 46.965625 22.318125 
z
" style="fill: #ffffff"/>
   </g>
   <g id="matplotlib.axis_1">
    <g id="xtick_1">
     <g id="line2d_1">
      <path d="M 83.455398 387.218125 
L 83.455398 22.318125 
" clip-path="url(#p4345ad6a6a)" style="fill: none; stroke: #b0b0b0; stroke-opacity: 0.3; stroke-width: 0.8; stroke-linecap: square"/>
     </g>
     <g id="line2d_2">
      <defs>
       <path id="m811edb538d" d="M 0 0 
L 0 3.5 
" style="stroke: #000000; stroke-width: 0.8"/>
      </defs>
      <g>
       <use xlink:href="#m811edb538d" x="83.455398" y="387.218125" style="stroke: #000000; stroke-width: 0.8"/>
      </g>
     </g>
     <g id="text_1">
      <!-- 1995 -->
      <g transform="translate(70.730398 401.816562) scale(0.1 -0.1)">
       <defs>
        <path id="DejaVuSans-31" d="M 794 531 
L 1825 531 
L 1825 4091 
L 703 3866 
L 703 4441 
L 1819 4666 
L 2450 4666 
L 2450 531 
L 3481 531 
L 3481 0 
L 794 0 
L 794 531 
z
" transform="scale(0.015625)"/>
        <path id="DejaVuSans-39" d="M 703 97 
L 703 672 
Q 941 559 1184 500 
Q 1428 441 1663 441 
Q 2288 441 2617 861 
Q 2947 1281 2994 2138 
Q 2813 1869 2534 1725 
Q 2256 1581 1919 1581 
Q 1219 1581 811 2004 
Q 403 2428 403 3163 
Q 403 3881 828 4315 
Q 1253 4750 1959 4750 
Q 2769 4750 3195 4129 
Q 3622 3509 3622 2328 
Q 3622 1225 3098 567 
Q 2575 -91 1691 -91 
Q 1453 -91 1209 -44 
Q 966 3 703 97 
z
M 1959 2075 
Q 2384 2075 2632 2365 
Q 2881 2656 2881 3163 
Q 2881 3666 2632 3958 
Q 2384 4250 1959 4250 
Q 1534 4250 1286 3958 
Q 1038 3666 1038 3163 
Q 1038 2656 1286 2365 
Q 1534 2075 1959 2075 
z
" transform="scale(0.015625)"/>
        <path id="DejaVuSans-35" d="M 691 4666 
L 3169 4666 
L 3169 4134 
L 1269 4134 
L 1269 2991 
Q 1406 3038 1543 3061 
Q 1681 3084 1819 3084 
Q 2600 3084 3056 2656 
Q 3513 2228 3513 1497 
Q 3513 744 3044 326 
Q 2575 -91 1722 -91 
Q 1428 -91 1123 -41 
Q 819 9 494 109 
L 494 744 
Q 775 591 1075 516 
Q 1375 441 1709 441 
Q 2250 441 2565 725 
Q 2881 1009 2881 1497 
Q 2881 1984 2565 2268 
Q 2250 2553 1709 2553 
Q 1456 2553 1204 2497 
Q 953 2441 691 2322 
L 691 4666 
z
" transform="scale(0.015625)"/>
       </defs>
       <use xlink:href="#DejaVuSans-31"/>
       <use xlink:href="#DejaVuSans-39" transform="translate(63.623047 0)"/>
       <use xlink:href="#DejaVuSans-39" transform="translate(127.246094 0)"/>
       <use xlink:href="#DejaVuSans-35" transform="translate(190.869141 0)"/>
      </g>
     </g>
    </g>
    <g id="xtick_2">
     <g id="line2d_3">
      <path d="M 218.602704 387.218125 
L 218.602704 22.318125 
" clip-path="url(#p4345ad6a6a)" style="fill: none; stroke: #b0b0b0; stroke-opacity: 0.3; stroke-width: 0.8; stroke-linecap: square"/>
     </g>
     <g id="line2d_4">
      <g>
       <use xlink:href="#m811edb538d" x="218.602704" y="387.218125" style="stroke: #000000; stroke-width: 0.8"/>
      </g>
     </g>
     <g id="text_2">
      <!-- 2000 -->
      <g transform="translate(205.877704 401.816562) scale(0.1 -0.1)">
       <defs>
        <path id="DejaVuSans-32" d="M 1228 531 
L 3431 531 
L 3431 0 
L 469 0 
L 469 531 
Q 828 903 1448 1529 
Q 2069 2156 2228 2338 
Q 2531 2678 2651 2914 
Q 2772 3150 2772 3378 
Q 2772 3750 2511 3984 
Q 2250 4219 1831 4219 
Q 1534 4219 1204 4116 
Q 875 4013 500 3803 
L 500 4441 
Q 881 4594 1212 4672 
Q 1544 4750 1819 4750 
Q 2544 4750 2975 4387 
Q 3406 4025 3406 3419 
Q 3406 3131 3298 2873 
Q 3191 2616 2906 2266 
Q 2828 2175 2409 1742 
Q 1991 1309 1228 531 
z
" transform="scale(0.015625)"/>
        <path id="DejaVuSans-30" d="M 2034 4250 
Q 1547 4250 1301 3770 
Q 1056 3291 1056 2328 
Q 1056 1369 1301 889 
Q 1547 409 2034 409 
Q 2525 409 2770 889 
Q 3016 1369 3016 2328 
Q 3016 3291 2770 3770 
Q 2525 4250 2034 4250 
z
M 2034 4750 
Q 2819 4750 3233 4129 
Q 3647 3509 3647 2328 
Q 3647 1150 3233 529 
Q 2819 -91 2034 -91 
Q 1250 -91 836 529 
Q 422 1150 422 2328 
Q 422 3509 836 4129 
Q 1250 4750 2034 4750 
z
" transform="scale(0.015625)"/>
       </defs>
       <use xlink:href="#DejaVuSans-32"/>
       <use xlink:href="#DejaVuSans-30" transform="translate(63.623047 0)"/>
       <use xlink:href="#DejaVuSans-30" transform="translate(127.246094 0)"/>
       <use xlink:href="#DejaVuSans-30" transform="translate(190.869141 0)"/>
      </g>
     </g>
    </g>
    <g id="xtick_3">
     <g id="line2d_5">
      <path d="M 353.750011 387.218125 
L 353.750011 22.318125 
" clip-path="url(#p4345ad6a6a)" style="fill: none; stroke: #b0b0b0; stroke-opacity: 0.3; stroke-width: 0.8; stroke-linecap: square"/>
     </g>
     <g id="line2d_6">
      <g>
       <use xlink:href="#m811edb538d" x="353.750011" y="387.218125" style="stroke: #000000; stroke-width: 0.8"/>
      </g>
     </g>
     <g id="text_3">
      <!-- 2005 -->
      <g transform="translate(341.025011 401.816562) scale(0.1 -0.1)">
       <use xlink:href="#DejaVuSans-32"/>
       <use xlink:href="#DejaVuSans-30" transform="translate(63.623047 0)"/>
       <use xlink:href="#DejaVuSans-30" transform="translate(127.246094 0)"/>
       <use xlink:href="#DejaVuSans-35" transform="translate(190.869141 0)"/>
      </g>
     </g>
    </g>
    <g id="xtick_4">
     <g id="line2d_7">
      <path d="M 488.897317 387.218125 
L 488.897317 22.318125 
" clip-path="url(#p4345ad6a6a)" style="fill: none; stroke: #b0b0b0; stroke-opacity: 0.3; stroke-width: 0.8; stroke-linecap: square"/>
     </g>
     <g id="line2d_8">
      <g>
       <use xlink:href="#m811edb538d" x="488.897317" y="387.218125" style="stroke: #000000; stroke-width: 0.8"/>
      </g>
     </g>
     <g id="text_4">
      <!-- 2010 -->
      <g transform="translate(476.172317 401.816562) scale(0.1 -0.1)">
       <use xlink:href="#DejaVuSans-32"/>
       <use xlink:href="#DejaVuSans-30" transform="translate(63.623047 0)"/>
       <use xlink:href="#DejaVuSans-31" transform="translate(127.246094 0)"/>
       <use xlink:href="#DejaVuSans-30" transform="translate(190.869141 0)"/>
      </g>
     </g>
    </g>
    <g id="xtick_5">
     <g id="line2d_9">
      <path d="M 624.044623 387.218125 
L 624.044623 22.318125 
" clip-path="url(#p4345ad6a6a)" style="fill: none; stroke: #b0b0b0; stroke-opacity: 0.3; stroke-width: 0.8; stroke-linecap: square"/>
     </g>
     <g id="line2d_10">
      <g>
       <use xlink:href="#m811edb538d" x="624.044623" y="387.218125" style="stroke: #000000; stroke-width: 0.8"/>
      </g>
     </g>
     <g id="text_5">
      <!-- 2015 -->
      <g transform="translate(611.319623 401.816562) scale(0.1 -0.1)">
       <use xlink:href="#DejaVuSans-32"/>
       <use xlink:href="#DejaVuSans-30" transform="translate(63.623047 0)"/>
       <use xlink:href="#DejaVuSans-31" transform="translate(127.246094 0)"/>
       <use xlink:href="#DejaVuSans-35" transform="translate(190.869141 0)"/>
      </g>
     </g>
    </g>
    <g id="xtick_6">
     <g id="line2d_11">
      <path d="M 759.19193 387.218125 
L 759.19193 22.318125 
" clip-path="url(#p4345ad6a6a)" style="fill: none; stroke: #b0b0b0; stroke-opacity: 0.3; stroke-width: 0.8; stroke-linecap: square"/>
     </g>
     <g id="line2d_12">
      <g>
       <use xlink:href="#m811edb538d" x="759.19193" y="387.218125" style="stroke: #000000; stroke-width: 0.8"/>
      </g>
     </g>
     <g id="text_6">
      <!-- 2020 -->
      <g transform="translate(746.46693 401.816562) scale(0.1 -0.1)">
       <use xlink:href="#DejaVuSans-32"/>
       <use xlink:href="#DejaVuSans-30" transform="translate(63.623047 0)"/>
       <use xlink:href="#DejaVuSans-32" transform="translate(127.246094 0)"/>
       <use xlink:href="#DejaVuSans-30" transform="translate(190.869141 0)"/>
      </g>
     </g>
    </g>
    <g id="text_7">
     <!-- Year -->
     <g transform="translate(437.765625 415.494687) scale(0.1 -0.1)">
      <defs>
       <path id="DejaVuSans-59" d="M -13 4666 
L 666 4666 
L 1959 2747 
L 3244 4666 
L 3922 4666 
L 2272 2222 
L 2272 0 
L 1638 0 
L 1638 2222 
L -13 4666 
z
" transform="scale(0.015625)"/>
       <path id="DejaVuSans-65" d="M 3597 1894 
L 3597 1613 
L 953 1613 
Q 991 1019 1311 708 
Q 1631 397 2203 397 
Q 2534 397 2845 478 
Q 3156 559 3463 722 
L 3463 178 
Q 3153 47 2828 -22 
Q 2503 -91 2169 -91 
Q 1331 -91 842 396 
Q 353 884 353 1716 
Q 353 2575 817 3079 
Q 1281 3584 2069 3584 
Q 2775 3584 3186 3129 
Q 3597 2675 3597 1894 
z
M 3022 2063 
Q 3016 2534 2758 2815 
Q 2500 3097 2075 3097 
Q 1594 3097 1305 2825 
Q 1016 2553 972 2059 
L 3022 2063 
z
" transform="scale(0.015625)"/>
       <path id="DejaVuSans-61" d="M 2194 1759 
Q 1497 1759 1228 1600 
Q 959 1441 959 1056 
Q 959 750 1161 570 
Q 1363 391 1709 391 
Q 2188 391 2477 730 
Q 2766 1069 2766 1631 
L 2766 1759 
L 2194 1759 
z
M 3341 1997 
L 3341 0 
L 2766 0 
L 2766 531 
Q 2569 213 2275 61 
Q 1981 -91 1556 -91 
Q 1019 -91 701 211 
Q 384 513 384 1019 
Q 384 1609 779 1909 
Q 1175 2209 1959 2209 
L 2766 2209 
L 2766 2266 
Q 2766 2663 2505 2880 
Q 2244 3097 1772 3097 
Q 1472 3097 1187 3025 
Q 903 2953 641 2809 
L 641 3341 
Q 956 3463 1253 3523 
Q 1550 3584 1831 3584 
Q 2591 3584 2966 3190 
Q 3341 2797 3341 1997 
z
" transform="scale(0.015625)"/>
       <path id="DejaVuSans-72" d="M 2631 2963 
Q 2534 3019 2420 3045 
Q 2306 3072 2169 3072 
Q 1681 3072 1420 2755 
Q 1159 2438 1159 1844 
L 1159 0 
L 581 0 
L 581 3500 
L 1159 3500 
L 1159 2956 
Q 1341 3275 1631 3429 
Q 1922 3584 2338 3584 
Q 2397 3584 2469 3576 
Q 2541 3569 2628 3553 
L 2631 2963 
z
" transform="scale(0.015625)"/>
      </defs>
      <use xlink:href="#DejaVuSans-59"/>
      <use xlink:href="#DejaVuSans-65" transform="translate(47.833984 0)"/>
      <use xlink:href="#DejaVuSans-61" transform="translate(109.357422 0)"/>
      <use xlink:href="#DejaVuSans-72" transform="translate(170.636719 0)"/>
     </g>
    </g>
   </g>
   <g id="matplotlib.axis_2">
    <g id="ytick_1">
     <g id="line2d_13">
      <path d="M 46.965625 370.631761 
L 849.740625 370.631761 
" clip-path="url(#p4345ad6a6a)" style="fill: none; stroke: #b0b0b0; stroke-opacity: 0.3; stroke-width: 0.8; stroke-linecap: square"/>
     </g>
     <g id="line2d_14">
      <defs>
       <path id="m9c50e25305" d="M 0 0 
L -3.5 0 
" style="stroke: #000000; stroke-width: 0.8"/>
      </defs>
      <g>
       <use xlink:href="#m9c50e25305" x="46.965625" y="370.631761" style="stroke: #000000; stroke-width: 0.8"/>
      </g>
     </g>
     <g id="text_8">
      <!-- 0 -->
      <g transform="translate(33.603125 374.43098) scale(0.1 -0.1)">
       <use xlink:href="#DejaVuSans-30"/>
      </g>
     </g>
    </g>
    <g id="ytick_2">
     <g id="line2d_15">
      <path d="M 46.965625 313.926245 
L 849.740625 313.926245 
" clip-path="url(#p4345ad6a6a)" style="fill: none; stroke: #b0b0b0; stroke-opacity: 0.3; stroke-width: 0.8; stroke-linecap: square"/>
     </g>
     <g id="line2d_16">
      <g>
       <use xlink:href="#m9c50e25305" x="46.965625" y="313.926245" style="stroke: #000000; stroke-width: 0.8"/>
      </g>
     </g>
     <g id="text_9">
      <!-- 20 -->
      <g transform="translate(27.240625 317.725463) scale(0.1 -0.1)">
       <use xlink:href="#DejaVuSans-32"/>
       <use xlink:href="#DejaVuSans-30" transform="translate(63.623047 0)"/>
      </g>
     </g>
    </g>
    <g id="ytick_3">
     <g id="line2d_17">
      <path d="M 46.965625 257.220728 
L 849.740625 257.220728 
" clip-path="url(#p4345ad6a6a)" style="fill: none; stroke: #b0b0b0; stroke-opacity: 0.3; stroke-width: 0.8; stroke-linecap: square"/>
     </g>
     <g id="line2d_18">
      <g>
       <use xlink:href="#m9c50e25305" x="46.965625" y="257.220728" style="stroke: #000000; stroke-width: 0.8"/>
      </g>
     </g>
     <g id="text_10">
      <!-- 40 -->
      <g transform="translate(27.240625 261.019947) scale(0.1 -0.1)">
       <defs>
        <path id="DejaVuSans-34" d="M 2419 4116 
L 825 1625 
L 2419 1625 
L 2419 4116 
z
M 2253 4666 
L 3047 4666 
L 3047 1625 
L 3713 1625 
L 3713 1100 
L 3047 1100 
L 3047 0 
L 2419 0 
L 2419 1100 
L 313 1100 
L 313 1709 
L 2253 4666 
z
" transform="scale(0.015625)"/>
       </defs>
       <use xlink:href="#DejaVuSans-34"/>
       <use xlink:href="#DejaVuSans-30" transform="translate(63.623047 0)"/>
      </g>
     </g>
    </g>
    <g id="ytick_4">
     <g id="line2d_19">
      <path d="M 46.965625 200.515211 
L 849.740625 200.515211 
" clip-path="url(#p4345ad6a6a)" style="fill: none; stroke: #b0b0b0; stroke-opacity: 0.3; stroke-width: 0.8; stroke-linecap: square"/>
     </g>
     <g id="line2d_20">
      <g>
       <use xlink:href="#m9c50e25305" x="46.965625" y="200.515211" style="stroke: #000000; stroke-width: 0.8"/>
      </g>
     </g>
     <g id="text_11">
      <!-- 60 -->
      <g transform="translate(27.240625 204.31443) scale(0.1 -0.1)">
       <defs>
        <path id="DejaVuSans-36" d="M 2113 2584 
Q 1688 2584 1439 2293 
Q 1191 2003 1191 1497 
Q 1191 994 1439 701 
Q 1688 409 2113 409 
Q 2538 409 2786 701 
Q 3034 994 3034 1497 
Q 3034 2003 2786 2293 
Q 2538 2584 2113 2584 
z
M 3366 4563 
L 3366 3988 
Q 3128 4100 2886 4159 
Q 2644 4219 2406 4219 
Q 1781 4219 1451 3797 
Q 1122 3375 1075 2522 
Q 1259 2794 1537 2939 
Q 1816 3084 2150 3084 
Q 2853 3084 3261 2657 
Q 3669 2231 3669 1497 
Q 3669 778 3244 343 
Q 2819 -91 2113 -91 
Q 1303 -91 875 529 
Q 447 1150 447 2328 
Q 447 3434 972 4092 
Q 1497 4750 2381 4750 
Q 2619 4750 2861 4703 
Q 3103 4656 3366 4563 
z
" transform="scale(0.015625)"/>
       </defs>
       <use xlink:href="#DejaVuSans-36"/>
       <use xlink:href="#DejaVuSans-30" transform="translate(63.623047 0)"/>
      </g>
     </g>
    </g>
    <g id="ytick_5">
     <g id="line2d_21">
      <path d="M 46.965625 143.809695 
L 849.740625 143.809695 
" clip-path="url(#p4345ad6a6a)" style="fill: none; stroke: #b0b0b0; stroke-opacity: 0.3; stroke-width: 0.8; stroke-linecap: square"/>
     </g>
     <g id="line2d_22">
      <g>
       <use xlink:href="#m9c50e25305" x="46.965625" y="143.809695" style="stroke: #000000; stroke-width: 0.8"/>
      </g>
     </g>
     <g id="text_12">
      <!-- 80 -->
      <g transform="translate(27.240625 147.608913) scale(0.1 -0.1)">
       <defs>
        <path id="DejaVuSans-38" d="M 2034 2216 
Q 1584 2216 1326 1975 
Q 1069 1734 1069 1313 
Q 1069 891 1326 650 
Q 1584 409 2034 409 
Q 2484 409 2743 651 
Q 3003 894 3003 1313 
Q 3003 1734 2745 1975 
Q 2488 2216 2034 2216 
z
M 1403 2484 
Q 997 2584 770 2862 
Q 544 3141 544 3541 
Q 544 4100 942 4425 
Q 1341 4750 2034 4750 
Q 2731 4750 3128 4425 
Q 3525 4100 3525 3541 
Q 3525 3141 3298 2862 
Q 3072 2584 2669 2484 
Q 3125 2378 3379 2068 
Q 3634 1759 3634 1313 
Q 3634 634 3220 271 
Q 2806 -91 2034 -91 
Q 1263 -91 848 271 
Q 434 634 434 1313 
Q 434 1759 690 2068 
Q 947 2378 1403 2484 
z
M 1172 3481 
Q 1172 3119 1398 2916 
Q 1625 2713 2034 2713 
Q 2441 2713 2670 2916 
Q 2900 3119 2900 3481 
Q 2900 3844 2670 4047 
Q 2441 4250 2034 4250 
Q 1625 4250 1398 4047 
Q 1172 3844 1172 3481 
z
" transform="scale(0.015625)"/>
       </defs>
       <use xlink:href="#DejaVuSans-38"/>
       <use xlink:href="#DejaVuSans-30" transform="translate(63.623047 0)"/>
      </g>
     </g>
    </g>
    <g id="ytick_6">
     <g id="line2d_23">
      <path d="M 46.965625 87.104178 
L 849.740625 87.104178 
" clip-path="url(#p4345ad6a6a)" style="fill: none; stroke: #b0b0b0; stroke-opacity: 0.3; stroke-width: 0.8; stroke-linecap: square"/>
     </g>
     <g id="line2d_24">
      <g>
       <use xlink:href="#m9c50e25305" x="46.965625" y="87.104178" style="stroke: #000000; stroke-width: 0.8"/>
      </g>
     </g>
     <g id="text_13">
      <!-- 100 -->
      <g transform="translate(20.878125 90.903397) scale(0.1 -0.1)">
       <use xlink:href="#DejaVuSans-31"/>
       <use xlink:href="#DejaVuSans-30" transform="translate(63.623047 0)"/>
       <use xlink:href="#DejaVuSans-30" transform="translate(127.246094 0)"/>
      </g>
     </g>
    </g>
    <g id="ytick_7">
     <g id="line2d_25">
      <path d="M 46.965625 30.398661 
L 849.740625 30.398661 
" clip-path="url(#p4345ad6a6a)" style="fill: none; stroke: #b0b0b0; stroke-opacity: 0.3; stroke-width: 0.8; stroke-linecap: square"/>
     </g>
     <g id="line2d_26">
      <g>
       <use xlink:href="#m9c50e25305" x="46.965625" y="30.398661" style="stroke: #000000; stroke-width: 0.8"/>
      </g>
     </g>
     <g id="text_14">
      <!-- 120 -->
      <g transform="translate(20.878125 34.19788) scale(0.1 -0.1)">
       <use xlink:href="#DejaVuSans-31"/>
       <use xlink:href="#DejaVuSans-32" transform="translate(63.623047 0)"/>
       <use xlink:href="#DejaVuSans-30" transform="translate(127.246094 0)"/>
      </g>
     </g>
    </g>
    <g id="text_15">
     <!-- Count -->
     <g transform="translate(14.798438 219.616562) rotate(-90) scale(0.1 -0.1)">
      <defs>
       <path id="DejaVuSans-43" d="M 4122 4306 
L 4122 3641 
Q 3803 3938 3442 4084 
Q 3081 4231 2675 4231 
Q 1875 4231 1450 3742 
Q 1025 3253 1025 2328 
Q 1025 1406 1450 917 
Q 1875 428 2675 428 
Q 3081 428 3442 575 
Q 3803 722 4122 1019 
L 4122 359 
Q 3791 134 3420 21 
Q 3050 -91 2638 -91 
Q 1578 -91 968 557 
Q 359 1206 359 2328 
Q 359 3453 968 4101 
Q 1578 4750 2638 4750 
Q 3056 4750 3426 4639 
Q 3797 4528 4122 4306 
z
" transform="scale(0.015625)"/>
       <path id="DejaVuSans-6f" d="M 1959 3097 
Q 1497 3097 1228 2736 
Q 959 2375 959 1747 
Q 959 1119 1226 758 
Q 1494 397 1959 397 
Q 2419 397 2687 759 
Q 2956 1122 2956 1747 
Q 2956 2369 2687 2733 
Q 2419 3097 1959 3097 
z
M 1959 3584 
Q 2709 3584 3137 3096 
Q 3566 2609 3566 1747 
Q 3566 888 3137 398 
Q 2709 -91 1959 -91 
Q 1206 -91 779 398 
Q 353 888 353 1747 
Q 353 2609 779 3096 
Q 1206 3584 1959 3584 
z
" transform="scale(0.015625)"/>
       <path id="DejaVuSans-75" d="M 544 1381 
L 544 3500 
L 1119 3500 
L 1119 1403 
Q 1119 906 1312 657 
Q 1506 409 1894 409 
Q 2359 409 2629 706 
Q 2900 1003 2900 1516 
L 2900 3500 
L 3475 3500 
L 3475 0 
L 2900 0 
L 2900 538 
Q 2691 219 2414 64 
Q 2138 -91 1772 -91 
Q 1169 -91 856 284 
Q 544 659 544 1381 
z
M 1991 3584 
L 1991 3584 
z
" transform="scale(0.015625)"/>
       <path id="DejaVuSans-6e" d="M 3513 2113 
L 3513 0 
L 2938 0 
L 2938 2094 
Q 2938 2591 2744 2837 
Q 2550 3084 2163 3084 
Q 1697 3084 1428 2787 
Q 1159 2491 1159 1978 
L 1159 0 
L 581 0 
L 581 3500 
L 1159 3500 
L 1159 2956 
Q 1366 3272 1645 3428 
Q 1925 3584 2291 3584 
Q 2894 3584 3203 3211 
Q 3513 2838 3513 2113 
z
" transform="scale(0.015625)"/>
       <path id="DejaVuSans-74" d="M 1172 4494 
L 1172 3500 
L 2356 3500 
L 2356 3053 
L 1172 3053 
L 1172 1153 
Q 1172 725 1289 603 
Q 1406 481 1766 481 
L 2356 481 
L 2356 0 
L 1766 0 
Q 1100 0 847 248 
Q 594 497 594 1153 
L 594 3053 
L 172 3053 
L 172 3500 
L 594 3500 
L 594 4494 
L 1172 4494 
z
" transform="scale(0.015625)"/>
      </defs>
      <use xlink:href="#DejaVuSans-43"/>
      <use xlink:href="#DejaVuSans-6f" transform="translate(69.824219 0)"/>
      <use xlink:href="#DejaVuSans-75" transform="translate(131.005859 0)"/>
      <use xlink:href="#DejaVuSans-6e" transform="translate(194.384766 0)"/>
      <use xlink:href="#DejaVuSans-74" transform="translate(257.763672 0)"/>
     </g>
    </g>
   </g>
   <g id="line2d_27">
    <path d="M 83.455398 364.96121 
L 110.484859 364.96121 
L 137.51432 353.620106 
L 164.543782 347.949555 
L 191.573243 325.267348 
L 218.602704 311.090969 
L 245.632165 347.949555 
L 272.661627 347.949555 
L 299.691088 347.949555 
L 326.720549 362.125934 
L 353.750011 353.620106 
L 380.779472 353.620106 
L 407.808933 356.455382 
L 434.838394 364.96121 
L 461.867856 362.125934 
L 488.897317 359.290658 
L 515.926778 359.290658 
L 542.956239 370.631761 
L 569.985701 356.455382 
L 597.015162 342.279003 
L 624.044623 345.114279 
L 651.074085 359.290658 
L 678.103546 362.125934 
L 705.133007 359.290658 
L 732.162468 367.796486 
L 759.19193 353.620106 
L 786.221391 362.125934 
L 813.250852 359.290658 
" clip-path="url(#p4345ad6a6a)" style="fill: none; stroke: #0000ff; stroke-width: 1.5; stroke-linecap: square"/>
    <defs>
     <path id="m47f3fbb37e" d="M 0 3 
C 0.795609 3 1.55874 2.683901 2.12132 2.12132 
C 2.683901 1.55874 3 0.795609 3 0 
C 3 -0.795609 2.683901 -1.55874 2.12132 -2.12132 
C 1.55874 -2.683901 0.795609 -3 0 -3 
C -0.795609 -3 -1.55874 -2.683901 -2.12132 -2.12132 
C -2.683901 -1.55874 -3 -0.795609 -3 0 
C -3 0.795609 -2.683901 1.55874 -2.12132 2.12132 
C -1.55874 2.683901 -0.795609 3 0 3 
z
" style="stroke: #0000ff"/>
    </defs>
    <g clip-path="url(#p4345ad6a6a)">
     <use xlink:href="#m47f3fbb37e" x="83.455398" y="364.96121" style="fill: #0000ff; stroke: #0000ff"/>
     <use xlink:href="#m47f3fbb37e" x="110.484859" y="364.96121" style="fill: #0000ff; stroke: #0000ff"/>
     <use xlink:href="#m47f3fbb37e" x="137.51432" y="353.620106" style="fill: #0000ff; stroke: #0000ff"/>
     <use xlink:href="#m47f3fbb37e" x="164.543782" y="347.949555" style="fill: #0000ff; stroke: #0000ff"/>
     <use xlink:href="#m47f3fbb37e" x="191.573243" y="325.267348" style="fill: #0000ff; stroke: #0000ff"/>
     <use xlink:href="#m47f3fbb37e" x="218.602704" y="311.090969" style="fill: #0000ff; stroke: #0000ff"/>
     <use xlink:href="#m47f3fbb37e" x="245.632165" y="347.949555" style="fill: #0000ff; stroke: #0000ff"/>
     <use xlink:href="#m47f3fbb37e" x="272.661627" y="347.949555" style="fill: #0000ff; stroke: #0000ff"/>
     <use xlink:href="#m47f3fbb37e" x="299.691088" y="347.949555" style="fill: #0000ff; stroke: #0000ff"/>
     <use xlink:href="#m47f3fbb37e" x="326.720549" y="362.125934" style="fill: #0000ff; stroke: #0000ff"/>
     <use xlink:href="#m47f3fbb37e" x="353.750011" y="353.620106" style="fill: #0000ff; stroke: #0000ff"/>
     <use xlink:href="#m47f3fbb37e" x="380.779472" y="353.620106" style="fill: #0000ff; stroke: #0000ff"/>
     <use xlink:href="#m47f3fbb37e" x="407.808933" y="356.455382" style="fill: #0000ff; stroke: #0000ff"/>
     <use xlink:href="#m47f3fbb37e" x="434.838394" y="364.96121" style="fill: #0000ff; stroke: #0000ff"/>
     <use xlink:href="#m47f3fbb37e" x="461.867856" y="362.125934" style="fill: #0000ff; stroke: #0000ff"/>
     <use xlink:href="#m47f3fbb37e" x="488.897317" y="359.290658" style="fill: #0000ff; stroke: #0000ff"/>
     <use xlink:href="#m47f3fbb37e" x="515.926778" y="359.290658" style="fill: #0000ff; stroke: #0000ff"/>
     <use xlink:href="#m47f3fbb37e" x="542.956239" y="370.631761" style="fill: #0000ff; stroke: #0000ff"/>
     <use xlink:href="#m47f3fbb37e" x="569.985701" y="356.455382" style="fill: #0000ff; stroke: #0000ff"/>
     <use xlink:href="#m47f3fbb37e" x="597.015162" y="342.279003" style="fill: #0000ff; stroke: #0000ff"/>
     <use xlink:href="#m47f3fbb37e" x="624.044623" y="345.114279" style="fill: #0000ff; stroke: #0000ff"/>
     <use xlink:href="#m47f3fbb37e" x="651.074085" y="359.290658" style="fill: #0000ff; stroke: #0000ff"/>
     <use xlink:href="#m47f3fbb37e" x="678.103546" y="362.125934" style="fill: #0000ff; stroke: #0000ff"/>
     <use xlink:href="#m47f3fbb37e" x="705.133007" y="359.290658" style="fill: #0000ff; stroke: #0000ff"/>
     <use xlink:href="#m47f3fbb37e" x="732.162468" y="367.796486" style="fill: #0000ff; stroke: #0000ff"/>
     <use xlink:href="#m47f3fbb37e" x="759.19193" y="353.620106" style="fill: #0000ff; stroke: #0000ff"/>
     <use xlink:href="#m47f3fbb37e" x="786.221391" y="362.125934" style="fill: #0000ff; stroke: #0000ff"/>
     <use xlink:href="#m47f3fbb37e" x="813.250852" y="359.290658" style="fill: #0000ff; stroke: #0000ff"/>
    </g>
   </g>
   <g id="line2d_28">
    <path d="M 83.455398 364.96121 
L 110.484859 359.290658 
L 137.51432 347.949555 
L 164.543782 313.926245 
L 191.573243 251.550176 
L 218.602704 183.503556 
L 245.632165 265.726555 
L 272.661627 302.585141 
L 299.691088 296.91459 
L 326.720549 291.244038 
L 353.750011 299.749865 
L 380.779472 251.550176 
L 407.808933 271.397107 
L 434.838394 316.76152 
L 461.867856 299.749865 
L 488.897317 243.044349 
L 515.926778 248.7149 
L 542.956239 243.044349 
L 569.985701 237.373797 
L 597.015162 206.185763 
L 624.044623 169.327177 
L 651.074085 172.162453 
L 678.103546 206.185763 
L 705.133007 211.856315 
L 732.162468 38.904489 
L 759.19193 155.150798 
L 786.221391 166.491901 
L 813.250852 282.73821 
" clip-path="url(#p4345ad6a6a)" style="fill: none; stroke: #ffa500; stroke-width: 1.5; stroke-linecap: square"/>
    <defs>
     <path id="m0a1ea1c960" d="M 0 3 
C 0.795609 3 1.55874 2.683901 2.12132 2.12132 
C 2.683901 1.55874 3 0.795609 3 0 
C 3 -0.795609 2.683901 -1.55874 2.12132 -2.12132 
C 1.55874 -2.683901 0.795609 -3 0 -3 
C -0.795609 -3 -1.55874 -2.683901 -2.12132 -2.12132 
C -2.683901 -1.55874 -3 -0.795609 -3 0 
C -3 0.795609 -2.683901 1.55874 -2.12132 2.12132 
C -1.55874 2.683901 -0.795609 3 0 3 
z
" style="stroke: #ffa500"/>
    </defs>
    <g clip-path="url(#p4345ad6a6a)">
     <use xlink:href="#m0a1ea1c960" x="83.455398" y="364.96121" style="fill: #ffa500; stroke: #ffa500"/>
     <use xlink:href="#m0a1ea1c960" x="110.484859" y="359.290658" style="fill: #ffa500; stroke: #ffa500"/>
     <use xlink:href="#m0a1ea1c960" x="137.51432" y="347.949555" style="fill: #ffa500; stroke: #ffa500"/>
     <use xlink:href="#m0a1ea1c960" x="164.543782" y="313.926245" style="fill: #ffa500; stroke: #ffa500"/>
     <use xlink:href="#m0a1ea1c960" x="191.573243" y="251.550176" style="fill: #ffa500; stroke: #ffa500"/>
     <use xlink:href="#m0a1ea1c960" x="218.602704" y="183.503556" style="fill: #ffa500; stroke: #ffa500"/>
     <use xlink:href="#m0a1ea1c960" x="245.632165" y="265.726555" style="fill: #ffa500; stroke: #ffa500"/>
     <use xlink:href="#m0a1ea1c960" x="272.661627" y="302.585141" style="fill: #ffa500; stroke: #ffa500"/>
     <use xlink:href="#m0a1ea1c960" x="299.691088" y="296.91459" style="fill: #ffa500; stroke: #ffa500"/>
     <use xlink:href="#m0a1ea1c960" x="326.720549" y="291.244038" style="fill: #ffa500; stroke: #ffa500"/>
     <use xlink:href="#m0a1ea1c960" x="353.750011" y="299.749865" style="fill: #ffa500; stroke: #ffa500"/>
     <use xlink:href="#m0a1ea1c960" x="380.779472" y="251.550176" style="fill: #ffa500; stroke: #ffa500"/>
     <use xlink:href="#m0a1ea1c960" x="407.808933" y="271.397107" style="fill: #ffa500; stroke: #ffa500"/>
     <use xlink:href="#m0a1ea1c960" x="434.838394" y="316.76152" style="fill: #ffa500; stroke: #ffa500"/>
     <use xlink:href="#m0a1ea1c960" x="461.867856" y="299.749865" style="fill: #ffa500; stroke: #ffa500"/>
     <use xlink:href="#m0a1ea1c960" x="488.897317" y="243.044349" style="fill: #ffa500; stroke: #ffa500"/>
     <use xlink:href="#m0a1ea1c960" x="515.926778" y="248.7149" style="fill: #ffa500; stroke: #ffa500"/>
     <use xlink:href="#m0a1ea1c960" x="542.956239" y="243.044349" style="fill: #ffa500; stroke: #ffa500"/>
     <use xlink:href="#m0a1ea1c960" x="569.985701" y="237.373797" style="fill: #ffa500; stroke: #ffa500"/>
     <use xlink:href="#m0a1ea1c960" x="597.015162" y="206.185763" style="fill: #ffa500; stroke: #ffa500"/>
     <use xlink:href="#m0a1ea1c960" x="624.044623" y="169.327177" style="fill: #ffa500; stroke: #ffa500"/>
     <use xlink:href="#m0a1ea1c960" x="651.074085" y="172.162453" style="fill: #ffa500; stroke: #ffa500"/>
     <use xlink:href="#m0a1ea1c960" x="678.103546" y="206.185763" style="fill: #ffa500; stroke: #ffa500"/>
     <use xlink:href="#m0a1ea1c960" x="705.133007" y="211.856315" style="fill: #ffa500; stroke: #ffa500"/>
     <use xlink:href="#m0a1ea1c960" x="732.162468" y="38.904489" style="fill: #ffa500; stroke: #ffa500"/>
     <use xlink:href="#m0a1ea1c960" x="759.19193" y="155.150798" style="fill: #ffa500; stroke: #ffa500"/>
     <use xlink:href="#m0a1ea1c960" x="786.221391" y="166.491901" style="fill: #ffa500; stroke: #ffa500"/>
     <use xlink:href="#m0a1ea1c960" x="813.250852" y="282.73821" style="fill: #ffa500; stroke: #ffa500"/>
    </g>
   </g>
   <g id="patch_3">
    <path d="M 46.965625 387.218125 
L 46.965625 22.318125 
" style="fill: none; stroke: #000000; stroke-width: 0.8; stroke-linejoin: miter; stroke-linecap: square"/>
   </g>
   <g id="patch_4">
    <path d="M 849.740625 387.218125 
L 849.740625 22.318125 
" style="fill: none; stroke: #000000; stroke-width: 0.8; stroke-linejoin: miter; stroke-linecap: square"/>
   </g>
   <g id="patch_5">
    <path d="M 46.965625 387.218125 
L 849.740625 387.218125 
" style="fill: none; stroke: #000000; stroke-width: 0.8; stroke-linejoin: miter; stroke-linecap: square"/>
   </g>
   <g id="patch_6">
    <path d="M 46.965625 22.318125 
L 849.740625 22.318125 
" style="fill: none; stroke: #000000; stroke-width: 0.8; stroke-linejoin: miter; stroke-linecap: square"/>
   </g>
   <g id="text_16">
    <!-- New Unique CVCs and Ventures by Year -->
    <g transform="translate(329.259687 16.318125) scale(0.12 -0.12)">
     <defs>
      <path id="DejaVuSans-4e" d="M 628 4666 
L 1478 4666 
L 3547 763 
L 3547 4666 
L 4159 4666 
L 4159 0 
L 3309 0 
L 1241 3903 
L 1241 0 
L 628 0 
L 628 4666 
z
" transform="scale(0.015625)"/>
      <path id="DejaVuSans-77" d="M 269 3500 
L 844 3500 
L 1563 769 
L 2278 3500 
L 2956 3500 
L 3675 769 
L 4391 3500 
L 4966 3500 
L 4050 0 
L 3372 0 
L 2619 2869 
L 1863 0 
L 1184 0 
L 269 3500 
z
" transform="scale(0.015625)"/>
      <path id="DejaVuSans-20" transform="scale(0.015625)"/>
      <path id="DejaVuSans-55" d="M 556 4666 
L 1191 4666 
L 1191 1831 
Q 1191 1081 1462 751 
Q 1734 422 2344 422 
Q 2950 422 3222 751 
Q 3494 1081 3494 1831 
L 3494 4666 
L 4128 4666 
L 4128 1753 
Q 4128 841 3676 375 
Q 3225 -91 2344 -91 
Q 1459 -91 1007 375 
Q 556 841 556 1753 
L 556 4666 
z
" transform="scale(0.015625)"/>
      <path id="DejaVuSans-69" d="M 603 3500 
L 1178 3500 
L 1178 0 
L 603 0 
L 603 3500 
z
M 603 4863 
L 1178 4863 
L 1178 4134 
L 603 4134 
L 603 4863 
z
" transform="scale(0.015625)"/>
      <path id="DejaVuSans-71" d="M 947 1747 
Q 947 1113 1208 752 
Q 1469 391 1925 391 
Q 2381 391 2643 752 
Q 2906 1113 2906 1747 
Q 2906 2381 2643 2742 
Q 2381 3103 1925 3103 
Q 1469 3103 1208 2742 
Q 947 2381 947 1747 
z
M 2906 525 
Q 2725 213 2448 61 
Q 2172 -91 1784 -91 
Q 1150 -91 751 415 
Q 353 922 353 1747 
Q 353 2572 751 3078 
Q 1150 3584 1784 3584 
Q 2172 3584 2448 3432 
Q 2725 3281 2906 2969 
L 2906 3500 
L 3481 3500 
L 3481 -1331 
L 2906 -1331 
L 2906 525 
z
" transform="scale(0.015625)"/>
      <path id="DejaVuSans-56" d="M 1831 0 
L 50 4666 
L 709 4666 
L 2188 738 
L 3669 4666 
L 4325 4666 
L 2547 0 
L 1831 0 
z
" transform="scale(0.015625)"/>
      <path id="DejaVuSans-73" d="M 2834 3397 
L 2834 2853 
Q 2591 2978 2328 3040 
Q 2066 3103 1784 3103 
Q 1356 3103 1142 2972 
Q 928 2841 928 2578 
Q 928 2378 1081 2264 
Q 1234 2150 1697 2047 
L 1894 2003 
Q 2506 1872 2764 1633 
Q 3022 1394 3022 966 
Q 3022 478 2636 193 
Q 2250 -91 1575 -91 
Q 1294 -91 989 -36 
Q 684 19 347 128 
L 347 722 
Q 666 556 975 473 
Q 1284 391 1588 391 
Q 1994 391 2212 530 
Q 2431 669 2431 922 
Q 2431 1156 2273 1281 
Q 2116 1406 1581 1522 
L 1381 1569 
Q 847 1681 609 1914 
Q 372 2147 372 2553 
Q 372 3047 722 3315 
Q 1072 3584 1716 3584 
Q 2034 3584 2315 3537 
Q 2597 3491 2834 3397 
z
" transform="scale(0.015625)"/>
      <path id="DejaVuSans-64" d="M 2906 2969 
L 2906 4863 
L 3481 4863 
L 3481 0 
L 2906 0 
L 2906 525 
Q 2725 213 2448 61 
Q 2172 -91 1784 -91 
Q 1150 -91 751 415 
Q 353 922 353 1747 
Q 353 2572 751 3078 
Q 1150 3584 1784 3584 
Q 2172 3584 2448 3432 
Q 2725 3281 2906 2969 
z
M 947 1747 
Q 947 1113 1208 752 
Q 1469 391 1925 391 
Q 2381 391 2643 752 
Q 2906 1113 2906 1747 
Q 2906 2381 2643 2742 
Q 2381 3103 1925 3103 
Q 1469 3103 1208 2742 
Q 947 2381 947 1747 
z
" transform="scale(0.015625)"/>
      <path id="DejaVuSans-62" d="M 3116 1747 
Q 3116 2381 2855 2742 
Q 2594 3103 2138 3103 
Q 1681 3103 1420 2742 
Q 1159 2381 1159 1747 
Q 1159 1113 1420 752 
Q 1681 391 2138 391 
Q 2594 391 2855 752 
Q 3116 1113 3116 1747 
z
M 1159 2969 
Q 1341 3281 1617 3432 
Q 1894 3584 2278 3584 
Q 2916 3584 3314 3078 
Q 3713 2572 3713 1747 
Q 3713 922 3314 415 
Q 2916 -91 2278 -91 
Q 1894 -91 1617 61 
Q 1341 213 1159 525 
L 1159 0 
L 581 0 
L 581 4863 
L 1159 4863 
L 1159 2969 
z
" transform="scale(0.015625)"/>
      <path id="DejaVuSans-79" d="M 2059 -325 
Q 1816 -950 1584 -1140 
Q 1353 -1331 966 -1331 
L 506 -1331 
L 506 -850 
L 844 -850 
Q 1081 -850 1212 -737 
Q 1344 -625 1503 -206 
L 1606 56 
L 191 3500 
L 800 3500 
L 1894 763 
L 2988 3500 
L 3597 3500 
L 2059 -325 
z
" transform="scale(0.015625)"/>
     </defs>
     <use xlink:href="#DejaVuSans-4e"/>
     <use xlink:href="#DejaVuSans-65" transform="translate(74.804688 0)"/>
     <use xlink:href="#DejaVuSans-77" transform="translate(136.328125 0)"/>
     <use xlink:href="#DejaVuSans-20" transform="translate(218.115234 0)"/>
     <use xlink:href="#DejaVuSans-55" transform="translate(249.902344 0)"/>
     <use xlink:href="#DejaVuSans-6e" transform="translate(323.095703 0)"/>
     <use xlink:href="#DejaVuSans-69" transform="translate(386.474609 0)"/>
     <use xlink:href="#DejaVuSans-71" transform="translate(414.257812 0)"/>
     <use xlink:href="#DejaVuSans-75" transform="translate(477.734375 0)"/>
     <use xlink:href="#DejaVuSans-65" transform="translate(541.113281 0)"/>
     <use xlink:href="#DejaVuSans-20" transform="translate(602.636719 0)"/>
     <use xlink:href="#DejaVuSans-43" transform="translate(634.423828 0)"/>
     <use xlink:href="#DejaVuSans-56" transform="translate(704.248047 0)"/>
     <use xlink:href="#DejaVuSans-43" transform="translate(772.65625 0)"/>
     <use xlink:href="#DejaVuSans-73" transform="translate(842.480469 0)"/>
     <use xlink:href="#DejaVuSans-20" transform="translate(894.580078 0)"/>
     <use xlink:href="#DejaVuSans-61" transform="translate(926.367188 0)"/>
     <use xlink:href="#DejaVuSans-6e" transform="translate(987.646484 0)"/>
     <use xlink:href="#DejaVuSans-64" transform="translate(1051.025391 0)"/>
     <use xlink:href="#DejaVuSans-20" transform="translate(1114.501953 0)"/>
     <use xlink:href="#DejaVuSans-56" transform="translate(1146.289062 0)"/>
     <use xlink:href="#DejaVuSans-65" transform="translate(1206.947266 0)"/>
     <use xlink:href="#DejaVuSans-6e" transform="translate(1268.470703 0)"/>
     <use xlink:href="#DejaVuSans-74" transform="translate(1331.849609 0)"/>
     <use xlink:href="#DejaVuSans-75" transform="translate(1371.058594 0)"/>
     <use xlink:href="#DejaVuSans-72" transform="translate(1434.4375 0)"/>
     <use xlink:href="#DejaVuSans-65" transform="translate(1473.300781 0)"/>
     <use xlink:href="#DejaVuSans-73" transform="translate(1534.824219 0)"/>
     <use xlink:href="#DejaVuSans-20" transform="translate(1586.923828 0)"/>
     <use xlink:href="#DejaVuSans-62" transform="translate(1618.710938 0)"/>
     <use xlink:href="#DejaVuSans-79" transform="translate(1682.1875 0)"/>
     <use xlink:href="#DejaVuSans-20" transform="translate(1741.367188 0)"/>
     <use xlink:href="#DejaVuSans-59" transform="translate(1773.154297 0)"/>
     <use xlink:href="#DejaVuSans-65" transform="translate(1820.988281 0)"/>
     <use xlink:href="#DejaVuSans-61" transform="translate(1882.511719 0)"/>
     <use xlink:href="#DejaVuSans-72" transform="translate(1943.791016 0)"/>
    </g>
   </g>
   <g id="legend_1">
    <g id="patch_7">
     <path d="M 741.6875 59.674375 
L 842.740625 59.674375 
Q 844.740625 59.674375 844.740625 57.674375 
L 844.740625 29.318125 
Q 844.740625 27.318125 842.740625 27.318125 
L 741.6875 27.318125 
Q 739.6875 27.318125 739.6875 29.318125 
L 739.6875 57.674375 
Q 739.6875 59.674375 741.6875 59.674375 
z
" style="fill: #ffffff; opacity: 0.8; stroke: #cccccc; stroke-linejoin: miter"/>
    </g>
    <g id="line2d_29">
     <path d="M 743.6875 35.416562 
L 753.6875 35.416562 
L 763.6875 35.416562 
" style="fill: none; stroke: #0000ff; stroke-width: 1.5; stroke-linecap: square"/>
     <g>
      <use xlink:href="#m47f3fbb37e" x="753.6875" y="35.416562" style="fill: #0000ff; stroke: #0000ff"/>
     </g>
    </g>
    <g id="text_17">
     <!-- New CVCs -->
     <g transform="translate(771.6875 38.916562) scale(0.1 -0.1)">
      <use xlink:href="#DejaVuSans-4e"/>
      <use xlink:href="#DejaVuSans-65" transform="translate(74.804688 0)"/>
      <use xlink:href="#DejaVuSans-77" transform="translate(136.328125 0)"/>
      <use xlink:href="#DejaVuSans-20" transform="translate(218.115234 0)"/>
      <use xlink:href="#DejaVuSans-43" transform="translate(249.902344 0)"/>
      <use xlink:href="#DejaVuSans-56" transform="translate(319.726562 0)"/>
      <use xlink:href="#DejaVuSans-43" transform="translate(388.134766 0)"/>
      <use xlink:href="#DejaVuSans-73" transform="translate(457.958984 0)"/>
     </g>
    </g>
    <g id="line2d_30">
     <path d="M 743.6875 50.094687 
L 753.6875 50.094687 
L 763.6875 50.094687 
" style="fill: none; stroke: #ffa500; stroke-width: 1.5; stroke-linecap: square"/>
     <g>
      <use xlink:href="#m0a1ea1c960" x="753.6875" y="50.094687" style="fill: #ffa500; stroke: #ffa500"/>
     </g>
    </g>
    <g id="text_18">
     <!-- New Ventures -->
     <g transform="translate(771.6875 53.594687) scale(0.1 -0.1)">
      <use xlink:href="#DejaVuSans-4e"/>
      <use xlink:href="#DejaVuSans-65" transform="translate(74.804688 0)"/>
      <use xlink:href="#DejaVuSans-77" transform="translate(136.328125 0)"/>
      <use xlink:href="#DejaVuSans-20" transform="translate(218.115234 0)"/>
      <use xlink:href="#DejaVuSans-56" transform="translate(249.902344 0)"/>
      <use xlink:href="#DejaVuSans-65" transform="translate(310.560547 0)"/>
      <use xlink:href="#DejaVuSans-6e" transform="translate(372.083984 0)"/>
      <use xlink:href="#DejaVuSans-74" transform="translate(435.462891 0)"/>
      <use xlink:href="#DejaVuSans-75" transform="translate(474.671875 0)"/>
      <use xlink:href="#DejaVuSans-72" transform="translate(538.050781 0)"/>
      <use xlink:href="#DejaVuSans-65" transform="translate(576.914062 0)"/>
      <use xlink:href="#DejaVuSans-73" transform="translate(638.4375 0)"/>
     </g>
    </g>
   </g>
  </g>
 </g>
 <defs>
  <clipPath id="p4345ad6a6a">
   <rect x="46.965625" y="22.318125" width="802.775" height="364.9"/>
  </clipPath>
 </defs>
</svg>
